<?xml version="1.0" encoding="UTF-8" standalone="no"?>
<!-- Created with Inkscape (http://www.inkscape.org/) -->

<svg
   xmlns:dc="http://purl.org/dc/elements/1.1/"
   xmlns:cc="http://creativecommons.org/ns#"
   xmlns:rdf="http://www.w3.org/1999/02/22-rdf-syntax-ns#"
   xmlns:svg="http://www.w3.org/2000/svg"
   xmlns="http://www.w3.org/2000/svg"
   xmlns:sodipodi="http://sodipodi.sourceforge.net/DTD/sodipodi-0.dtd"
   xmlns:inkscape="http://www.inkscape.org/namespaces/inkscape"
   width="163.50101"
   height="141.59599"
   viewBox="0 0 163.50101 141.596"
   id="svg4154"
   version="1.1"
   inkscape:version="0.91 r13725"
   sodipodi:docname="SVG-logo_only.svg">
  <defs
     id="defs4156" />
  <sodipodi:namedview
     id="base"
     pagecolor="#ffffff"
     bordercolor="#666666"
     borderopacity="1.0"
     inkscape:pageopacity="0.0"
     inkscape:pageshadow="2"
     inkscape:zoom="1.4"
     inkscape:cx="195.88729"
     inkscape:cy="39.916694"
     inkscape:document-units="px"
     inkscape:current-layer="layer1"
     showgrid="false"
     units="px"
     inkscape:window-width="1920"
     inkscape:window-height="1021"
     inkscape:window-x="0"
     inkscape:window-y="0"
     inkscape:window-maximized="1" />
  <metadata
     id="metadata4159">
    <rdf:RDF>
      <cc:Work
         rdf:about="">
        <dc:format>image/svg+xml</dc:format>
        <dc:type
           rdf:resource="http://purl.org/dc/dcmitype/StillImage" />
        <dc:title></dc:title>
      </cc:Work>
    </rdf:RDF>
  </metadata>
  <g
     inkscape:label="Layer 1"
     inkscape:groupmode="layer"
     id="layer1"
     transform="translate(0,-910.76616)">
    <path
       d="m 74.232152,1015.3878 -6.005087,-10.401 -12.000224,-20.7851 -1.52281,-2.6375 1.513917,-2.62219 6.00469,-10.40066 -12.010163,2.7e-4 -7.518219,13.02258 9.763799,16.91142 4.881899,8.45608 4.882422,8.4559 5.925056,10.2628 6.005075,10.4011 7.597989,0 31.458244,-9e-4 15.72886,-27.2427 15.729,-27.2437 -6.00507,-10.40144 -6.00443,10.40105 -25.45357,44.08619 -15.036819,4e-4 -12.009514,0 -5.925045,-10.2626 z"
       style="fill:#fb9d11;fill-opacity:1;fill-rule:evenodd;stroke:none"
       id="path12"
       inkscape:connector-curvature="0" />
    <path
       d="m 108.79684,981.5642 -12.226723,21.1775 -1.296316,2.2451 -3.027457,0 -12.009765,0 6.005076,10.4008 15.036835,0 9.76392,-16.91156 0.87186,-1.51016 8.89234,-15.40207 5.92505,-10.26282 6.00482,-10.40064 -3.79886,-6.58008 -15.72888,-27.24315 -31.458632,-3.8e-4 -31.457601,3.8e-4 -6.005077,10.40065 12.009901,0 50.906599,0 7.51835,13.02219 6.00469,10.40039 -5.92544,10.26281 -6.00469,10.40104 z"
       style="fill:#f7e211;fill-opacity:1;fill-rule:evenodd;stroke:none"
       id="path14"
       inkscape:connector-curvature="0" />
    <path
       d="m 90.410074,958.14097 4.863329,0 1.513929,2.62181 6.004688,10.40077 6.00521,-10.40077 -7.51874,-13.02258 -2.352287,3.8e-4 -36.703827,-3.8e-4 -11.8501,3.8e-4 -12.010288,0 -3.798738,6.57969 -15.728995,27.24393 15.728995,27.2432 15.729257,27.2441 12.009514,-4e-4 -6.00469,-10.4007 -25.453175,-44.0862 7.518616,-13.02258 6.00469,-10.40065 11.850099,0 12.009901,0 22.182612,0 z"
       style="fill:#c80e7d;fill-opacity:1;fill-rule:evenodd;stroke:none"
       id="path16"
       inkscape:connector-curvature="0" />
    <path
       d="m 0,981.5642 40.875645,70.797 81.749975,10e-4 40.87485,-70.798 L 122.62483,910.76686 40.874463,910.7662 0,981.5642 Z m 29.444793,30.198 -17.435279,-30.198 17.435279,-30.19828 17.435144,-30.19867 34.870171,0 34.869242,7.8e-4 17.43606,30.19789 17.43516,30.19828 -17.43516,30.198 -17.43488,30.1986 -34.870422,0 -34.869386,-7e-4 -17.435929,-30.1979 z"
       style="fill:#00afef;fill-opacity:1;fill-rule:evenodd;stroke:none"
       id="path18"
       inkscape:connector-curvature="0" />
  </g>
</svg>
