<?xml version="1.0" encoding="UTF-8" standalone="no"?>
<!-- Created with Inkscape (http://www.inkscape.org/) -->

<svg
   xmlns:dc="http://purl.org/dc/elements/1.1/"
   xmlns:cc="http://creativecommons.org/ns#"
   xmlns:rdf="http://www.w3.org/1999/02/22-rdf-syntax-ns#"
   xmlns:svg="http://www.w3.org/2000/svg"
   xmlns="http://www.w3.org/2000/svg"
   xmlns:sodipodi="http://sodipodi.sourceforge.net/DTD/sodipodi-0.dtd"
   xmlns:inkscape="http://www.inkscape.org/namespaces/inkscape"
   id="svg2"
   version="1.1"
   inkscape:version="0.91 r13725"
   xml:space="preserve"
   width="556.02899"
   height="141.59599"
   viewBox="0 0 556.02899 141.59599"
   sodipodi:docname="SVG.svg"><metadata
     id="metadata8"><rdf:RDF><cc:Work
         rdf:about=""><dc:format>image/svg+xml</dc:format><dc:type
           rdf:resource="http://purl.org/dc/dcmitype/StillImage" /><dc:title></dc:title></cc:Work></rdf:RDF></metadata><defs
     id="defs6" /><sodipodi:namedview
     pagecolor="#ffffff"
     bordercolor="#666666"
     borderopacity="1"
     objecttolerance="10"
     gridtolerance="10"
     guidetolerance="10"
     inkscape:pageopacity="0"
     inkscape:pageshadow="2"
     inkscape:window-width="1920"
     inkscape:window-height="1021"
     id="namedview4"
     showgrid="false"
     inkscape:zoom="1.3005426"
     inkscape:cx="390.46096"
     inkscape:cy="-10.067896"
     inkscape:window-x="0"
     inkscape:window-y="0"
     inkscape:window-maximized="1"
     inkscape:current-layer="g10" /><g
     id="g10"
     inkscape:groupmode="layer"
     inkscape:label="PDF"
     transform="matrix(1.25,0,0,-1.25,1.25,140.34602)"><path
       d="m 58.38566,28.579585 -4.80406,8.32083 -9.60017,16.62805 -1.21825,2.10999 1.21114,2.09776 4.80374,8.32051 -9.60812,-2.1e-4 -6.01457,-10.41806 7.81104,-13.52912 3.90551,-6.76487 3.90594,-6.76467 4.74003,-8.210241 4.80406,-8.320825 6.07839,0 25.16657,6.28e-4 12.58308,21.794188 12.58319,21.79491 -4.80406,8.32114 -4.80354,-8.32082 -20.36283,-35.268908 -12.02945,-3.13e-4 -9.6076,0 -4.74004,8.210031 z"
       style="fill:#fb9d11;fill-opacity:1;fill-rule:evenodd;stroke:none"
       id="path12"
       inkscape:connector-curvature="0" /><path
       d="m 86.03739,55.638455 -9.78137,-16.94189 -1.03705,-1.79615 -2.42196,0 -9.60781,0 4.80406,-8.32062 12.02945,0 7.81114,13.52923 0.69747,1.2081 7.11387,12.32165 4.74004,8.21024 4.80385,8.32051 -3.03909,5.26406 -12.58308,21.7945 -25.16689,3.1e-4 -25.16605,-3.1e-4 -4.80406,-8.32051 9.60791,0 40.72524,0 6.01468,-10.41775 4.80374,-8.3203 -4.74035,-8.21024 -4.80374,-8.32083 z"
       style="fill:#f7e211;fill-opacity:1;fill-rule:evenodd;stroke:none"
       id="path14"
       inkscape:connector-curvature="0" /><path
       d="m 71.32799,74.377025 3.89066,0 1.21114,-2.09744 4.80375,-8.32062 4.80416,8.32062 -6.01499,10.41805 -1.88183,-3.1e-4 -29.36302,3.1e-4 -9.48008,-3.1e-4 -9.60822,0 -3.038986,-5.26374 -12.583184,-21.79513 12.583184,-21.7946 12.583396,-21.795126 9.6076,3.14e-4 -4.80375,8.320511 -20.362518,35.268901 6.014888,10.41806 4.80374,8.32051 9.48007,0 9.60792,0 17.74607,0 z"
       style="fill:#c80e7d;fill-opacity:1;fill-rule:evenodd;stroke:none"
       id="path16"
       inkscape:connector-curvature="0" /><path
       d="M -1,55.638455 31.70048,-0.99905282 97.1004,-0.99999482 129.80025,55.638455 97.09977,112.27629 31.69954,112.27681 -1,55.638455 Z m 23.555809,-24.15839 -13.948211,24.15839 13.948211,24.15861 13.948101,24.158925 27.89611,0 27.89538,-6.3e-4 13.94884,-24.158295 13.9481,-24.15861 -13.9481,-24.15839 -13.9479,-24.1589218 -27.89632,0 -27.89548,6.28e-4 -13.948731,24.1582938 z"
       style="fill:#00afef;fill-opacity:1;fill-rule:evenodd;stroke:none"
       id="path18"
       inkscape:connector-curvature="0" /><path
       d="m 177.79452,32.241035 c 0,0.42558 0.18245,0.78703 0.5463,1.08476 0.36469,0.29774 0.87563,0.44598 1.53168,0.44598 0.58239,0 1.1604,-0.11204 1.73118,-0.33718 0.57057,-0.22471 1.14763,-0.54944 1.73129,-0.9747 l 1.20308,1.69477 c -0.65594,0.52256 -1.35792,0.92052 -2.1055,1.19356 -0.74664,0.2741 -1.58828,0.41052 -2.52385,0.41052 -0.63136,0 -1.21501,-0.0884 -1.74698,-0.26426 -0.53438,-0.17618 -0.98988,-0.42882 -1.36984,-0.75648 -0.37955,-0.32828 -0.67728,-0.71976 -0.89583,-1.17525 -0.21561,-0.4555 -0.32535,-0.9632 -0.32535,-1.52216 0,-0.59516 0.094,-1.09962 0.28267,-1.51243 0.18862,-0.41365 0.46491,-0.766 0.82354,-1.05714 0.3582,-0.2922 0.80418,-0.53438 1.33322,-0.72959 0.53145,-0.19417 1.13613,-0.37003 1.81958,-0.52811 0.59526,-0.14593 1.07828,-0.2856 1.45196,-0.41909 0.37097,-0.13432 0.66222,-0.27629 0.87773,-0.42871 0.21237,-0.15159 0.35831,-0.31887 0.4375,-0.50122 0.0789,-0.18234 0.11832,-0.38843 0.11832,-0.61974 0,-0.49828 -0.20379,-0.892895 -0.61033,-1.184145 -0.40716,-0.292087 -0.95671,-0.437399 -1.65,-0.437399 -0.80125,0 -1.51808,0.142069 -2.15027,0.427879 -0.63167,0.285915 -1.25769,0.695385 -1.87743,1.230695 L 175.079,24.677526 c 0.76485,-0.692452 1.59791,-1.206324 2.49697,-1.540258 0.89918,-0.333933 1.84103,-0.501109 2.82463,-0.501109 0.6687,0 1.28196,0.08505 1.84103,0.254739 0.55572,0.170733 1.03548,0.4193 1.4302,0.747584 0.39796,0.327657 0.70814,0.728858 0.93328,1.203396 0.22178,0.473595 0.33393,1.014147 0.33393,1.621227 0,0.53522 -0.0884,0.99961 -0.26457,1.39495 -0.17586,0.39471 -0.4374,0.74047 -0.77751,1.03915 -0.34021,0.29742 -0.77133,0.54913 -1.28761,0.75616 -0.51691,0.20609 -1.11238,0.39472 -1.78025,0.5643 -0.61085,0.14625 -1.11237,0.28591 -1.51002,0.4193 -0.39471,0.13412 -0.70427,0.27943 -0.93233,0.4375 -0.22503,0.15776 -0.37986,0.32818 -0.46502,0.51063 -0.0844,0.18235 -0.12721,0.40089 -0.12721,0.65594 z m 18.09486,-4.33789 5.06654,7.67346 -2.57051,0 -3.60841,-5.65009 -3.57221,5.65009 -2.64228,0 5.06654,-7.72807 0,-5.030031 2.26033,0 0,5.084641 z m 20.1899,4.06474 0,-9.149381 2.22382,0 0,12.758101 -2.38806,0 -3.88188,-6.03298 -3.88239,6.03298 -2.38723,0 0,-12.758101 2.22319,0 0,9.113181 3.9913,-5.97837 0.0736,0 4.0277,6.01457 z m 18.22229,-0.67488 c 0,0.65678 -0.11204,1.24577 -0.33686,1.76832 -0.22503,0.52246 -0.54714,0.97178 -0.96644,1.3484 -0.41899,0.37661 -0.9291,0.66546 -1.53053,0.8659 -0.60165,0.20045 -1.27276,0.30098 -2.01386,0.30098 l -5.03034,0 0,-12.758101 2.22298,0 0,4.100941 2.53965,0 c 0.70815,0 1.37026,0.094 1.99252,0.28173 0.61974,0.18893 1.16039,0.46501 1.62531,0.82981 0.46208,0.36469 0.82677,0.82019 1.09668,1.36649 0.26751,0.54714 0.40089,1.17871 0.40089,1.89553 z m -2.27811,-0.0451 c 0,-0.69538 -0.24637,-1.25444 -0.74131,-1.67343 -0.49201,-0.42254 -1.16605,-0.63251 -2.02013,-0.63251 l -2.6155,0 0,4.61126 2.6155,0 c 0.84132,0 1.51327,-0.19124 2.01155,-0.57706 0.50111,-0.38279 0.74989,-0.95996 0.74989,-1.72826 z m 20.19053,-2.03195 c 0,0.89855 -0.16425,1.74928 -0.49253,2.55148 -0.32766,0.80219 -0.78316,1.50081 -1.3665,2.09597 -0.58333,0.59516 -1.28196,1.06583 -2.09597,1.41221 -0.81402,0.3467 -1.71319,0.51952 -2.69742,0.51952 -0.98453,0 -1.88371,-0.17617 -2.69772,-0.52904 -0.8137,-0.35193 -1.51892,-0.82887 -2.11408,-1.4302 -0.59516,-0.60175 -1.05693,-1.30341 -1.38553,-2.10466 -0.32734,-0.80209 -0.49169,-1.65324 -0.49169,-2.55242 0,-0.89906 0.16435,-1.74928 0.49169,-2.55147 0.3286,-0.80219 0.7841,-1.500504 1.36743,-2.095977 0.58334,-0.595159 1.28197,-1.065825 2.09598,-1.412208 0.8137,-0.346592 1.71319,-0.519522 2.69741,-0.519522 0.98454,0 1.88371,0.176173 2.69773,0.528205 0.8137,0.352869 1.5186,0.829707 2.11408,1.431143 0.59515,0.601646 1.05693,1.303619 1.38459,2.104869 0.32828,0.80188 0.49253,1.65293 0.49253,2.5521 z m -2.35103,-0.0371 c 0,-0.61974 -0.1064,-1.20538 -0.31877,-1.7588 -0.2132,-0.55279 -0.5077,-1.03255 -0.88432,-1.43909 -0.3763,-0.407479 -0.8297,-0.729591 -1.35759,-0.966232 -0.52905,-0.236955 -1.10935,-0.355275 -1.74071,-0.355275 -0.63167,0 -1.215,0.121668 -1.74969,0.364481 -0.5349,0.242604 -0.99375,0.570886 -1.37591,0.983706 -0.38289,0.41365 -0.68032,0.89613 -0.89352,1.44955 -0.21237,0.55237 -0.31877,1.13895 -0.31877,1.7588 0,0.61891 0.1064,1.20549 0.31877,1.75817 0.2132,0.55342 0.5077,1.03319 0.88431,1.43983 0.37631,0.40738 0.8294,0.72949 1.3576,0.96644 0.52904,0.23664 1.10935,0.35528 1.7407,0.35528 0.63167,0 1.21501,-0.12167 1.74939,-0.3648 0.53458,-0.2426 0.99312,-0.57089 1.3759,-0.9837 0.38321,-0.41365 0.68064,-0.89614 0.89384,-1.44945 0.21237,-0.55248 0.31877,-1.13906 0.31877,-1.75891 z m 9.69275,3.06221 c 0,0.42558 0.18235,0.78703 0.54651,1.08476 0.36449,0.29774 0.87543,0.44598 1.53137,0.44598 0.58271,0 1.1604,-0.11204 1.73129,-0.33718 0.57078,-0.22471 1.14794,-0.54944 1.73118,-0.9747 l 1.20308,1.69477 c -0.65594,0.52256 -1.35781,0.92052 -2.1055,1.19356 -0.74664,0.2741 -1.58827,0.41052 -2.52385,0.41052 -0.63136,0 -1.2147,-0.0884 -1.74698,-0.26426 -0.53438,-0.17618 -0.98988,-0.42882 -1.36942,-0.75648 -0.37997,-0.32828 -0.6777,-0.71976 -0.89625,-1.17525 -0.21561,-0.4555 -0.32525,-0.9632 -0.32525,-1.52216 0,-0.59516 0.094,-1.09962 0.28257,-1.51243 0.18894,-0.41365 0.46502,-0.766 0.82354,-1.05714 0.3582,-0.2922 0.80449,-0.53438 1.33322,-0.72959 0.53145,-0.19417 1.13613,-0.37003 1.81969,-0.52811 0.59516,-0.14593 1.07848,-0.2856 1.45185,-0.41909 0.37097,-0.13432 0.66222,-0.27629 0.87784,-0.42871 0.21226,-0.15159 0.35851,-0.31887 0.43739,-0.50122 0.0789,-0.18234 0.11832,-0.38843 0.11832,-0.61974 0,-0.49828 -0.20368,-0.892895 -0.61032,-1.184145 -0.40717,-0.292087 -0.95661,-0.437399 -1.64969,-0.437399 -0.80125,0 -1.51829,0.142069 -2.15059,0.427879 -0.63167,0.285915 -1.25769,0.695385 -1.87712,1.230695 l -1.34839,-1.604069 c 0.76474,-0.692452 1.5978,-1.206324 2.49697,-1.540258 0.89907,-0.333933 1.84092,-0.501109 2.82462,-0.501109 0.66871,0 1.28197,0.08505 1.84093,0.254739 0.55572,0.170733 1.0358,0.4193 1.43051,0.747584 0.39775,0.327657 0.70794,0.728858 0.93297,1.203396 0.22178,0.473595 0.33393,1.014147 0.33393,1.621227 0,0.53522 -0.0884,0.99961 -0.26457,1.39495 -0.17586,0.39471 -0.43709,0.74047 -0.77751,1.03915 -0.3401,0.29742 -0.77133,0.54913 -1.28761,0.75616 -0.5169,0.20609 -1.11206,0.39472 -1.78014,0.5643 -0.61096,0.14625 -1.11206,0.28591 -1.51002,0.4193 -0.39472,0.13412 -0.70438,0.27943 -0.93244,0.4375 -0.22503,0.15776 -0.37986,0.32818 -0.46492,0.51063 -0.0845,0.18235 -0.12721,0.40089 -0.12721,0.65594 z m 12.75423,3.33557 0,-12.758101 2.22382,0 0,12.758101 -2.22382,0 z m 19.20683,0 -2.22382,0 0,-7.34518 c 0,-1.17849 -0.2879,-2.06574 -0.86203,-2.661003 -0.57476,-0.595369 -1.36084,-0.892896 -2.36348,-0.892896 -1.01456,0 -1.80692,0.309349 -2.38158,0.929089 -0.57413,0.61985 -0.86297,1.5252 -0.86297,2.71583 l 0,7.25416 -2.22299,0 0,-7.34518 c 0,-0.92344 0.12701,-1.73421 0.3829,-2.43294 0.25474,-0.698625 0.61953,-1.285206 1.09334,-1.758801 0.47359,-0.473596 1.04511,-0.829708 1.71287,-1.066663 0.66871,-0.23664 1.41545,-0.355275 2.24223,-0.355275 0.83839,0 1.59456,0.118635 2.26859,0.355275 0.67436,0.236955 1.24912,0.595473 1.72261,1.075241 0.47359,0.480187 0.84163,1.078589 1.10296,1.795313 0.26123,0.71766 0.39137,1.54946 0.39137,2.49697 l 0,7.23606 z m 16.23574,-3.60872 0,-9.149381 2.22382,0 0,12.758101 -2.38807,0 -3.88156,-6.03298 -3.88239,6.03298 -2.38754,0 0,-12.758101 2.22329,0 0,9.113181 3.9912,-5.97837 0.0735,0 4.02771,6.01457 z"
       style="fill:#1a1a1a;fill-opacity:1;fill-rule:nonzero;stroke:none"
       id="path20"
       inkscape:connector-curvature="0" /><path
       d="m 183.37441,9.7293982 0,-5.376727 2.22298,0 0,12.7582058 -2.22298,0 0,-5.303496 -6.12463,0 0,5.303496 -2.22287,0 0,-12.7582058 2.22287,0 0,5.376727 6.12463,0 z m 14.08756,7.4721808 -2.07799,0 -5.61274,-12.8489078 2.29653,0 1.31188,3.080306 6.03298,0 1.29389,-3.080306 2.36913,0 -5.61368,12.8489078 z m 1.13047,-7.7823668 -4.3925,0 2.18668,5.1036798 2.20582,-5.1036798 z m 18.97249,-3.025069 -1.44004,1.458134 c -0.54703,-0.510943 -1.09951,-0.914237 -1.65857,-1.212601 -0.55897,-0.297737 -1.22767,-0.445977 -2.00528,-0.445977 -0.60698,0 -1.16897,0.11832 -1.68525,0.355275 -0.51628,0.236641 -0.9632,0.561891 -1.33982,0.974705 -0.37661,0.413128 -0.6687,0.896243 -0.87448,1.449556 -0.20704,0.552476 -0.3105,1.1447058 -0.3105,1.7768988 0,0.63167 0.10346,1.220657 0.3105,1.767797 0.20578,0.547036 0.49787,1.023665 0.87448,1.430202 0.37662,0.407479 0.82354,0.729486 1.33982,0.966441 0.51628,0.236641 1.07827,0.355275 1.68525,0.355275 0.72959,0 1.37926,-0.146148 1.95077,-0.437399 0.57079,-0.29125 1.11144,-0.674039 1.62238,-1.147948 l 1.4392,1.658055 c -0.30307,0.292087 -0.6255,0.558648 -0.9656,0.801775 -0.34011,0.243232 -0.71118,0.453196 -1.11238,0.629368 -0.40037,0.176069 -0.84069,0.312488 -1.32046,0.40978 -0.48019,0.09698 -1.01216,0.145939 -1.59487,0.145939 -0.97272,0 -1.85913,-0.172929 -2.66121,-0.519626 -0.80188,-0.346278 -1.49434,-0.819874 -2.07767,-1.421624 -0.58355,-0.601436 -1.0358,-1.303303 -1.35792,-2.104555 -0.322,-0.802194 -0.48301,-1.658683 -0.48301,-2.570514 0,-0.9229198 0.16394,-1.7854768 0.4917,-2.5876708 0.32849,-0.802194 0.78074,-1.497575 1.35781,-2.086561 0.578,-0.589824 1.26062,-1.054841 2.05099,-1.394947 0.78943,-0.340106 1.6523,-0.510107 2.58767,-0.510107 0.59547,0 1.13937,0.05137 1.63096,0.154832 0.49263,0.103465 0.9451,0.255053 1.35791,0.455497 0.41376,0.200444 0.79895,0.437398 1.15747,0.711387 0.3582,0.273152 0.70166,0.585744 1.03015,0.938613 z m 10.07795,5.2307878 5.30413,5.485946 -2.75265,0 -6.06939,-6.415876 0,6.415876 -2.22298,0 0,-12.7582058 2.22298,0 0,3.70005 1.98717,2.0405308 4.35599,-5.7405808 2.71573,0 -5.54098,7.2722598 z m 15.80127,5.576648 -2.07788,0 -5.61274,-12.8489078 2.29642,0 1.31199,3.080306 6.03298,0 1.29378,-3.080306 2.36913,0 -5.61368,12.8489078 z m 1.13048,-7.7823668 -4.3925,0 2.18678,5.1036798 2.20572,-5.1036798 z m 12.4114,5.6136818 4.04591,0 0,2.077983 -10.35256,0 0,-2.077983 4.04674,0 0,-10.6802228 2.25991,0 0,10.6802228 z m 16.74878,-5.3034958 0,-5.376727 2.22298,0 0,12.7582058 -2.22298,0 0,-5.303496 -6.12431,0 0,5.303496 -2.22319,0 0,-12.7582058 2.22319,0 0,5.376727 6.12431,0 z m 20.26648,1.0207358 c 0,0.898545 -0.16425,1.749385 -0.49253,2.551578 -0.32776,0.80209 -0.78326,1.500818 -1.36649,2.095977 -0.58334,0.595159 -1.28207,1.065826 -2.09608,1.412104 -0.81402,0.346697 -1.71319,0.519626 -2.69742,0.519626 -0.98454,0 -1.8836,-0.176173 -2.69762,-0.528728 -0.81381,-0.352346 -1.51902,-0.829184 -2.11418,-1.43062 -0.59516,-0.601646 -1.05683,-1.303303 -1.38543,-2.104556 -0.32744,-0.802193 -0.49169,-1.653243 -0.49169,-2.552415 0,-0.8991728 0.16425,-1.7493848 0.49169,-2.5514738 0.3286,-0.80188 0.7841,-1.500608 1.36733,-2.096081 0.58334,-0.59516 1.28207,-1.065512 2.09608,-1.412104 0.8137,-0.346697 1.71309,-0.519627 2.69742,-0.519627 0.98454,0 1.8836,0.176173 2.69762,0.528205 0.8138,0.352869 1.51871,0.829708 2.11418,1.431458 0.59516,0.601331 1.05683,1.303303 1.38459,2.104555 0.32828,0.80188 0.49253,1.653034 0.49253,2.5521018 z m -2.35103,-0.03703 c 0,-0.619848 -0.1065,-1.2054878 -0.31877,-1.7587998 -0.21331,-0.552476 -0.5077,-1.032663 -0.88431,-1.439199 -0.37631,-0.407479 -0.82981,-0.729486 -1.3576,-0.966127 -0.52904,-0.236955 -1.10945,-0.355275 -1.74081,-0.355275 -0.63156,0 -1.2149,0.121563 -1.74959,0.364795 -0.53501,0.242186 -0.99375,0.57047 -1.37601,0.983597 -0.38279,0.413651 -0.68032,0.89593 -0.89353,1.449243 -0.21226,0.552789 -0.31876,1.1393698 -0.31876,1.7587998 0,0.618907 0.1065,1.205487 0.31876,1.758277 0.21321,0.553313 0.5077,1.033185 0.88432,1.439722 0.3763,0.407479 0.8295,0.729486 1.3576,0.966441 0.52904,0.236641 1.10945,0.355275 1.74081,0.355275 0.63156,0 1.2149,-0.121564 1.74928,-0.364795 0.53469,-0.242186 0.99311,-0.570784 1.37601,-0.983598 0.3831,-0.413651 0.68052,-0.896138 0.89383,-1.449556 0.21227,-0.552476 0.31877,-1.139056 0.31877,-1.7588 z m 15.94658,-2.4234238 -6.81917,8.8212008 -2.07463,0 0,-12.7582058 2.22329,0 0,9.0762538 7.02045,-9.0762538 1.87419,0 0,12.7582058 -2.22413,0 0,-8.8212008 z"
       style="fill:#1a1a1a;fill-opacity:1;fill-rule:nonzero;stroke:none"
       id="path22"
       inkscape:connector-curvature="0" /><path
       d="m 221.71336,106.47848 -11.03989,0 -12.17037,-32.786795 -12.17037,32.786795 -11.30582,0 18.821,-46.886175 9.04476,0 18.82069,46.886175 z m 30.44842,-46.553185 0,46.553185 -10.24219,0 0,-46.553185 10.24219,0 z m 57.84781,13.76639 0,0.13318 c 0,2.03906 -0.32179,3.79075 -0.96445,5.25338 -0.64255,1.46347 -1.6069,2.73832 -2.87087,3.82423 -1.26292,1.08665 -2.82609,2.01741 -4.66649,2.79356 -1.83945,0.77604 -3.94558,1.47382 -6.30634,2.09482 -1.99523,0.53166 -3.64701,0.9973 -4.966,1.39641 -1.30749,0.39911 -2.33827,0.81998 -3.10312,1.26387 -0.75386,0.44304 -1.27516,0.94217 -1.56338,1.49611 -0.288,0.55394 -0.43174,1.20789 -0.43174,1.96165 l 0,0.13317 c 0,1.15297 0.49901,2.11732 1.496,2.89252 0.99793,0.77604 2.49435,1.16427 4.48917,1.16427 1.99523,0 3.99036,-0.40988 5.98559,-1.23038 1.99513,-0.81998 4.03419,-1.93947 6.11803,-3.35817 l 5.32045,7.714165 c -2.39382,1.90652 -5.02125,3.36967 -7.88081,4.38926 -2.85988,1.01948 -5.99679,1.5299 -9.4104,1.5299 -2.39371,0 -4.58845,-0.33216 -6.57238,-0.9973 -1.98477,-0.66515 -3.70214,-1.61831 -5.13214,-2.85968 -1.42957,-1.24158 -2.53871,-2.71603 -3.33609,-4.422945 -0.78734,-1.70702 -1.18655,-3.62473 -1.18655,-5.75251 l 0,-0.13317 c 0,-2.30563 0.36563,-4.2338 1.09784,-5.78588 0.73126,-1.55219 1.77303,-2.84869 3.10342,-3.89045 1.32998,-1.04177 2.95948,-1.91782 4.866,-2.6268 1.9175,-0.70972 4.04528,-1.35227 6.40604,-1.9288 1.95129,-0.48783 3.54731,-0.95316 4.7665,-1.39641 1.21909,-0.44368 2.17214,-0.88704 2.87087,-1.33009 0.68743,-0.44388 1.15265,-0.92041 1.3961,-1.42989 0.24438,-0.5101 0.36594,-1.09752 0.36594,-1.76277 l 0,-0.13255 c 0,-1.37476 -0.58679,-2.45 -1.76204,-3.22551 -1.17526,-0.77583 -2.82641,-1.16396 -4.95471,-1.16396 -2.66038,0 -5.10954,0.50948 -7.34915,1.52959 -2.23857,1.01958 -4.42211,2.39434 -6.55073,4.12291 l -6.05171,-7.24852 c 2.79356,-2.52751 5.89688,-4.40045 9.31081,-5.61964 3.41382,-1.21909 6.8947,-1.8291 10.44117,-1.8291 2.52752,0 4.83252,0.32179 6.90569,0.96445 2.07265,0.64255 3.86817,1.57373 5.36459,2.79282 1.49611,1.21972 2.66007,2.72712 3.50222,4.52264 0.83128,1.79563 1.25267,3.84599 1.25267,6.15162"
       style="fill:#1a1a1a;fill-opacity:1;fill-rule:nonzero;stroke:none"
       id="path24"
       inkscape:connector-curvature="0" /><path
       d="m 363.36374,65.843515 -3.25826,3.05834 c -1.37444,-1.46284 -2.91439,-2.68172 -4.6214,-3.65758 -1.7066,-0.97481 -3.66825,-1.46263 -5.88443,-1.46263 -1.81812,0 -3.49155,0.34398 -5.02082,1.03078 -1.52896,0.6868 -2.85936,1.6296 -3.98973,2.84837 -1.13048,1.21878 -2.01689,2.64845 -2.65944,4.27805 -0.64266,1.63954 -0.96414,3.37941 -0.96414,5.24178 0,1.86143 0.31019,3.59031 0.93087,5.20882 0.62037,1.60731 1.48481,3.02569 2.59332,4.24489 1.1082,1.21877 2.41568,2.16062 3.9233,2.84795 1.5071,0.68691 3.12477,1.03026 4.85365,1.03026 2.35019,0 4.33402,-0.5098 5.95149,-1.52896 1.61819,-1.02022 3.1143,-2.23899 4.48885,-3.65768 l 3.39133,3.59125 c -0.79801,0.84247 -1.66245,1.63953 -2.59395,2.39371 -0.93087,0.75386 -1.95014,1.40739 -3.05834,1.96165 -1.10851,0.55425 -2.32728,0.986 -3.65757,1.29619 -1.32946,0.31018 -2.81511,0.46596 -4.45475,0.46596 -2.52689,0 -4.86516,-0.47695 -7.01574,-1.42968 -2.14975,-0.95284 -4.01202,-2.24997 -5.58523,-3.89045 -1.57405,-1.63965 -2.80412,-3.55715 -3.69053,-5.75094 -0.88672,-2.19473 -1.3303,-4.51082 -1.3303,-6.94963 0,-2.43765 0.44358,-4.74275 1.3303,-6.9152 0.88641,-2.17193 2.11648,-4.06746 3.69053,-5.68482 1.57321,-1.6183 3.43548,-2.90351 5.58523,-3.85729 2.15058,-0.95274 4.48885,-1.42968 7.01574,-1.42968 3.23587,0 5.95086,0.63167 8.14528,1.88434 2.19473,1.26323 4.15586,2.87055 5.88474,4.8322 z m 41.16118,11.30384 c 0,2.43796 -0.44389,4.74307 -1.3303,6.91552 -0.88662,2.17193 -2.12746,4.06725 -3.7238,5.68545 -1.59539,1.61767 -3.49092,2.90382 -5.68482,3.85666 -2.19442,0.95273 -4.57715,1.42968 -7.14829,1.42968 -2.61529,0 -5.02082,-0.47695 -7.21472,-1.42968 -2.19442,-0.95284 -4.08912,-2.24997 -5.68545,-3.89045 -1.59633,-1.63965 -2.83739,-3.55715 -3.72369,-5.75094 -0.88672,-2.19473 -1.3304,-4.51082 -1.3304,-6.94963 0,-2.43765 0.44368,-4.74275 1.3304,-6.9152 0.8863,-2.17193 2.12736,-4.06746 3.72369,-5.68482 1.59633,-1.6183 3.47973,-2.90351 5.6525,-3.85729 2.17172,-0.95274 4.54315,-1.42968 7.11429,-1.42968 2.57135,0 4.96569,0.47694 7.18145,1.42968 2.2167,0.95378 4.12322,2.24997 5.71872,3.89045 1.59622,1.63964 2.84827,3.55715 3.75696,5.75188 0.90859,2.1939 1.36346,4.50988 1.36346,6.94837 z m -5.25308,-0.10022 c 0,-1.86143 -0.31018,-3.59031 -0.93139,-5.20851 -0.62068,-1.60679 -1.48512,-3.01419 -2.59332,-4.21099 -1.10767,-1.19691 -2.43797,-2.12841 -3.98921,-2.81521 -1.55187,-0.6868 -3.25878,-1.03078 -5.12021,-1.03078 -1.81728,0 -3.50191,0.35496 -5.05409,1.06405 -1.55124,0.7096 -2.89221,1.65146 -4.02289,2.84837 -1.13048,1.1968 -2.01689,2.61518 -2.65955,4.24478 -0.64255,1.63954 -0.96372,3.37941 -0.96372,5.24178 0,1.86143 0.31019,3.59031 0.93056,5.20882 0.62069,1.60731 1.47383,3.02569 2.56005,4.24489 1.08633,1.21877 2.40481,2.16062 3.95688,2.84795 1.55125,0.68691 3.25795,1.03026 5.11938,1.03026 1.81811,0 3.50274,-0.35434 5.05398,-1.06311 1.55125,-0.70992 2.90351,-1.66276 4.05627,-2.88154 1.15234,-1.21971 2.05005,-2.63841 2.6926,-4.27805 0.6436,-1.64048 0.96466,-3.38034 0.96466,-5.24271 z m 19.61588,2.56015 c 0,1.59634 0.25505,3.05918 0.76422,4.38947 0.51,1.32915 1.23091,2.47082 2.16146,3.4246 0.93087,0.95274 2.02808,1.68379 3.29111,2.19379 1.26397,0.50979 2.62659,0.76485 4.08943,0.76485 3.05918,0 5.40843,-0.93056 7.04901,-2.79293 1.64048,-1.86174 2.45983,-4.38863 2.45983,-7.58035 l 0,-20.08163 5.12021,0 0,21.34497 c 0,2.03906 -0.2992,3.90133 -0.89771,5.58606 -0.5984,1.68379 -1.46284,3.13544 -2.59332,4.35505 -1.13037,1.21919 -2.5046,2.16073 -4.12228,2.8264 -1.6183,0.66463 -3.46874,0.9971 -5.55227,0.9971 -2.97056,0 -5.38625,-0.65364 -7.24851,-1.96176 -1.86143,-1.30749 -3.36852,-2.89252 -4.52118,-4.75426 l 0,5.98413 -5.12021,0 0,-34.37769 5.12021,0 0,19.6822 z"
       style="fill:#1a1a1a;fill-opacity:1;fill-rule:nonzero;stroke:none"
       id="path26"
       inkscape:connector-curvature="0" /><path
       d="m 151.496,112.2766 3.94024,0 0,-113.27628082 -3.94024,0 0,113.27628082 z"
       style="fill:#1a1a1a;fill-opacity:1;fill-rule:evenodd;stroke:none"
       id="path28"
       inkscape:connector-curvature="0" /></g></svg>