<?xml version="1.0" encoding="UTF-8" standalone="no"?><!DOCTYPE svg PUBLIC "-//W3C//DTD SVG 1.1//EN" "http://www.w3.org/Graphics/SVG/1.1/DTD/svg11.dtd"><svg width="100%" height="100%" viewBox="0 0 569 258" version="1.1" xmlns="http://www.w3.org/2000/svg" xmlns:xlink="http://www.w3.org/1999/xlink" xml:space="preserve" xmlns:serif="http://www.serif.com/" style="fill-rule:evenodd;clip-rule:evenodd;stroke-linejoin:round;stroke-miterlimit:1.41421;"><g id="Layer-1" serif:id="Layer 1"><g><path d="M90.576,161.187l-5.716,-9.897l-11.419,-19.781l-1.449,-2.51l1.441,-2.495l5.714,-9.897l-11.429,0l-7.154,12.392l9.291,16.093l4.645,8.048l4.647,8.047l5.639,9.766l5.714,9.898l7.23,0l29.936,-0.001l14.969,-25.924l14.968,-25.927l-5.715,-9.898l-5.714,9.898l-24.222,41.954l-14.31,0l-11.427,0l-5.639,-9.766Z" style="fill:#fb9d11;"/><path d="M123.468,128.999l-11.636,20.154l-1.233,2.137l-2.881,0l-11.429,0l5.715,9.897l14.309,0l9.291,-16.093l0.83,-1.438l8.463,-14.657l5.638,-9.766l5.715,-9.897l-3.615,-6.262l-14.969,-25.925l-29.936,0l-29.936,0l-5.714,9.897l59.872,0l7.154,12.392l5.715,9.898l-5.639,9.766l-5.714,9.897Z" style="fill:#f7e211;"/><path d="M105.971,106.709l4.628,0l1.441,2.495l5.713,9.898l5.716,-9.898l-7.156,-12.392l-2.238,0l-34.928,0l-11.277,0l-11.429,0l-3.615,6.262l-14.968,25.925l14.968,25.926l14.968,25.926l11.429,-0.001l-5.714,-9.897l-24.222,-41.954l7.154,-12.392l5.714,-9.898l43.816,0Z" style="fill:#c80e7d;"/><path d="M19.934,128.999l38.899,67.373l77.795,0.001l38.897,-67.374l-38.897,-67.372l-77.796,0l-38.898,67.372Zm28.021,28.738l-16.592,-28.738l16.592,-28.736l16.591,-28.738l66.366,0l16.593,28.738l16.591,28.736l-16.591,28.738l-16.592,28.738l-33.183,0l-33.183,-0.001l-16.592,-28.737Z" style="fill:#00afef;"/><path d="M232.616,156.831c0,-0.505 0.217,-0.936 0.65,-1.29c0.434,-0.354 1.041,-0.53 1.822,-0.53c0.693,0 1.381,0.133 2.059,0.4c0.68,0.268 1.365,0.655 2.06,1.16l1.431,-2.016c-0.78,-0.621 -1.615,-1.095 -2.505,-1.42c-0.887,-0.326 -1.889,-0.488 -3.002,-0.488c-0.751,0 -1.445,0.105 -2.078,0.314c-0.636,0.21 -1.177,0.51 -1.629,0.901c-0.452,0.39 -0.806,0.856 -1.066,1.398c-0.257,0.541 -0.387,1.146 -0.387,1.81c0,0.708 0.112,1.308 0.336,1.8c0.225,0.491 0.553,0.911 0.98,1.257c0.426,0.347 0.956,0.635 1.586,0.868c0.632,0.23 1.351,0.439 2.164,0.627c0.708,0.175 1.283,0.34 1.727,0.499c0.442,0.16 0.788,0.329 1.044,0.511c0.253,0.18 0.427,0.379 0.52,0.596c0.095,0.216 0.142,0.461 0.142,0.736c0,0.594 -0.243,1.063 -0.727,1.409c-0.484,0.347 -1.137,0.52 -1.962,0.52c-0.953,0 -1.806,-0.169 -2.557,-0.509c-0.752,-0.339 -1.498,-0.826 -2.234,-1.463l-1.604,1.908c0.909,0.823 1.901,1.434 2.97,1.831c1.07,0.399 2.19,0.596 3.36,0.596c0.795,0 1.525,-0.1 2.19,-0.302c0.661,-0.203 1.232,-0.499 1.701,-0.89c0.473,-0.389 0.843,-0.866 1.111,-1.431c0.263,-0.564 0.397,-1.206 0.397,-1.929c0,-0.636 -0.105,-1.188 -0.315,-1.659c-0.209,-0.469 -0.521,-0.881 -0.925,-1.235c-0.404,-0.355 -0.917,-0.654 -1.532,-0.9c-0.615,-0.245 -1.323,-0.469 -2.117,-0.672c-0.726,-0.173 -1.324,-0.34 -1.797,-0.498c-0.469,-0.16 -0.837,-0.332 -1.108,-0.521c-0.268,-0.187 -0.452,-0.39 -0.553,-0.607c-0.101,-0.217 -0.152,-0.477 -0.152,-0.781Zm21.524,5.161l6.027,-9.128l-3.058,0l-4.292,6.721l-4.248,-6.721l-3.144,0l6.027,9.193l0,5.983l2.688,0l0,-6.048Zm24.018,-4.836l0,10.884l2.644,0l0,-15.176l-2.84,0l-4.618,7.177l-4.618,-7.177l-2.84,0l0,15.176l2.645,0l0,-10.84l4.747,7.112l0.089,0l4.791,-7.156Zm21.675,0.804c0,-0.782 -0.133,-1.482 -0.4,-2.104c-0.268,-0.621 -0.651,-1.156 -1.15,-1.604c-0.498,-0.448 -1.105,-0.792 -1.821,-1.03c-0.715,-0.239 -1.514,-0.358 -2.395,-0.358l-5.984,0l0,15.176l2.645,0l0,-4.878l3.02,0c0.843,0 1.63,-0.112 2.371,-0.335c0.736,-0.225 1.38,-0.554 1.932,-0.987c0.55,-0.434 0.985,-0.976 1.306,-1.625c0.317,-0.652 0.476,-1.403 0.476,-2.255Zm-2.71,0.053c0,0.827 -0.292,1.493 -0.881,1.99c-0.586,0.503 -1.388,0.753 -2.403,0.753l-3.111,0l0,-5.485l3.111,0c1,0 1.799,0.227 2.392,0.687c0.596,0.455 0.892,1.141 0.892,2.055Zm24.018,2.417c0,-1.069 -0.196,-2.081 -0.586,-3.035c-0.39,-0.955 -0.931,-1.785 -1.626,-2.493c-0.694,-0.708 -1.524,-1.268 -2.494,-1.68c-0.968,-0.413 -2.037,-0.618 -3.208,-0.618c-1.171,0 -2.241,0.21 -3.209,0.63c-0.967,0.418 -1.807,0.985 -2.514,1.701c-0.708,0.715 -1.258,1.55 -1.649,2.504c-0.389,0.953 -0.585,1.966 -0.585,3.036c0,1.069 0.196,2.081 0.585,3.034c0.391,0.954 0.934,1.786 1.627,2.494c0.694,0.708 1.525,1.268 2.494,1.68c0.968,0.412 2.037,0.617 3.208,0.617c1.171,0 2.241,-0.209 3.209,-0.627c0.968,-0.421 1.806,-0.988 2.515,-1.703c0.708,-0.716 1.257,-1.551 1.647,-2.503c0.39,-0.955 0.586,-1.968 0.586,-3.037Zm-2.797,0.045c0,0.737 -0.127,1.434 -0.379,2.092c-0.254,0.657 -0.604,1.228 -1.052,1.711c-0.448,0.485 -0.987,0.869 -1.615,1.15c-0.63,0.281 -1.319,0.422 -2.071,0.422c-0.751,0 -1.445,-0.145 -2.08,-0.433c-0.638,-0.289 -1.183,-0.68 -1.638,-1.17c-0.456,-0.493 -0.809,-1.067 -1.063,-1.725c-0.253,-0.657 -0.378,-1.355 -0.378,-2.092c0,-0.737 0.125,-1.433 0.378,-2.092c0.254,-0.658 0.605,-1.228 1.053,-1.712c0.447,-0.484 0.986,-0.867 1.614,-1.15c0.63,-0.281 1.32,-0.422 2.071,-0.422c0.751,0 1.446,0.145 2.08,0.433c0.636,0.289 1.183,0.68 1.638,1.171c0.456,0.492 0.809,1.066 1.063,1.724c0.252,0.657 0.379,1.355 0.379,2.093Zm11.53,-3.644c0,-0.505 0.217,-0.936 0.65,-1.289c0.434,-0.355 1.041,-0.531 1.822,-0.531c0.693,0 1.38,0.133 2.059,0.402c0.678,0.266 1.365,0.653 2.06,1.158l1.431,-2.016c-0.781,-0.621 -1.616,-1.095 -2.505,-1.42c-0.889,-0.326 -1.889,-0.488 -3.002,-0.488c-0.752,0 -1.446,0.105 -2.078,0.314c-0.636,0.21 -1.179,0.51 -1.629,0.901c-0.453,0.39 -0.806,0.856 -1.067,1.398c-0.256,0.541 -0.387,1.146 -0.387,1.81c0,0.708 0.112,1.308 0.336,1.8c0.226,0.491 0.554,0.911 0.98,1.257c0.427,0.348 0.957,0.635 1.586,0.868c0.633,0.23 1.352,0.439 2.165,0.627c0.708,0.175 1.283,0.34 1.727,0.499c0.442,0.16 0.788,0.329 1.044,0.511c0.253,0.18 0.427,0.379 0.52,0.596c0.095,0.216 0.141,0.461 0.141,0.736c0,0.594 -0.242,1.063 -0.726,1.409c-0.484,0.347 -1.137,0.52 -1.962,0.52c-0.954,0 -1.806,-0.169 -2.559,-0.509c-0.75,-0.339 -1.496,-0.826 -2.232,-1.463l-1.604,1.908c0.909,0.823 1.9,1.434 2.97,1.831c1.069,0.399 2.19,0.596 3.36,0.596c0.795,0 1.524,-0.1 2.19,-0.302c0.661,-0.203 1.232,-0.499 1.701,-0.89c0.473,-0.389 0.843,-0.866 1.11,-1.431c0.264,-0.564 0.397,-1.206 0.397,-1.929c0,-0.636 -0.104,-1.188 -0.314,-1.659c-0.21,-0.469 -0.521,-0.881 -0.925,-1.235c-0.405,-0.355 -0.917,-0.654 -1.532,-0.9c-0.615,-0.245 -1.323,-0.469 -2.118,-0.672c-0.727,-0.173 -1.323,-0.34 -1.796,-0.498c-0.469,-0.16 -0.837,-0.332 -1.109,-0.521c-0.267,-0.187 -0.451,-0.39 -0.553,-0.607c-0.1,-0.217 -0.151,-0.477 -0.151,-0.781Zm15.171,-3.967l0,15.176l2.646,0l0,-15.176l-2.646,0Zm22.848,0l-2.646,0l0,8.737c0,1.403 -0.342,2.458 -1.025,3.166c-0.683,0.708 -1.619,1.062 -2.811,1.062c-1.207,0 -2.149,-0.369 -2.834,-1.106c-0.683,-0.736 -1.027,-1.814 -1.027,-3.23l0,-8.629l-2.644,0l0,8.737c0,1.099 0.152,2.063 0.455,2.895c0.304,0.83 0.738,1.528 1.302,2.092c0.563,0.563 1.243,0.986 2.037,1.268c0.795,0.282 1.684,0.423 2.667,0.423c0.998,0 1.897,-0.141 2.699,-0.423c0.802,-0.282 1.486,-0.708 2.049,-1.278c0.563,-0.571 1.001,-1.283 1.313,-2.136c0.309,-0.853 0.465,-1.844 0.465,-2.97l0,-8.608Zm19.312,4.292l0,10.884l2.646,0l0,-15.176l-2.841,0l-4.617,7.177l-4.618,-7.177l-2.841,0l0,15.176l2.646,0l0,-10.84l4.747,7.112l0.087,0l4.791,-7.156Z" style="fill:#1a1a1a;fill-rule:nonzero;"/><path d="M239.254,183.61l0,6.396l2.645,0l0,-15.176l-2.645,0l0,6.308l-7.286,0l0,-6.308l-2.645,0l0,15.176l2.645,0l0,-6.396l7.286,0Zm16.758,-8.889l-2.473,0l-6.676,15.285l2.731,0l1.562,-3.664l7.175,0l1.54,3.664l2.818,0l-6.677,-15.285Zm1.344,9.258l-5.224,0l2.6,-6.071l2.624,6.071Zm22.569,3.599l-1.714,-1.735c-0.651,0.607 -1.308,1.087 -1.972,1.442c-0.666,0.355 -1.461,0.532 -2.386,0.532c-0.722,0 -1.39,-0.142 -2.005,-0.424c-0.613,-0.281 -1.146,-0.668 -1.594,-1.159c-0.448,-0.492 -0.795,-1.067 -1.04,-1.724c-0.245,-0.658 -0.368,-1.363 -0.368,-2.114c0,-0.752 0.123,-1.452 0.368,-2.103c0.245,-0.651 0.592,-1.217 1.04,-1.701c0.448,-0.485 0.981,-0.868 1.594,-1.15c0.615,-0.282 1.283,-0.422 2.005,-0.422c0.868,0 1.64,0.173 2.321,0.52c0.678,0.346 1.322,0.801 1.929,1.365l1.712,-1.972c-0.361,-0.348 -0.744,-0.665 -1.148,-0.954c-0.405,-0.29 -0.847,-0.538 -1.323,-0.749c-0.477,-0.209 -1.001,-0.371 -1.571,-0.486c-0.571,-0.116 -1.204,-0.175 -1.897,-0.175c-1.158,0 -2.212,0.206 -3.166,0.619c-0.953,0.412 -1.777,0.974 -2.472,1.691c-0.693,0.716 -1.232,1.549 -1.615,2.503c-0.382,0.954 -0.574,1.973 -0.574,3.057c0,1.099 0.194,2.125 0.585,3.079c0.391,0.955 0.929,1.781 1.615,2.481c0.687,0.702 1.5,1.256 2.44,1.661c0.939,0.404 1.965,0.606 3.078,0.606c0.708,0 1.356,-0.061 1.94,-0.185c0.585,-0.122 1.124,-0.302 1.616,-0.541c0.491,-0.239 0.949,-0.52 1.376,-0.846c0.426,-0.325 0.835,-0.697 1.226,-1.116Zm11.988,-6.223l6.309,-6.525l-3.274,0l-7.221,7.632l0,-7.632l-2.644,0l0,15.176l2.644,0l0,-4.402l2.365,-2.427l5.182,6.829l3.229,0l-6.59,-8.651Zm18.796,-6.634l-2.472,0l-6.676,15.285l2.731,0l1.561,-3.664l7.176,0l1.539,3.664l2.818,0l-6.677,-15.285Zm1.345,9.258l-5.226,0l2.601,-6.071l2.625,6.071Zm14.763,-6.678l4.813,0l0,-2.471l-12.315,0l0,2.471l4.814,0l0,12.705l2.688,0l0,-12.705Zm19.923,6.309l0,6.396l2.644,0l0,-15.176l-2.644,0l0,6.308l-7.285,0l0,-6.308l-2.644,0l0,15.176l2.644,0l0,-6.396l7.285,0Zm24.109,-1.214c0,-1.069 -0.196,-2.081 -0.587,-3.035c-0.39,-0.955 -0.932,-1.786 -1.625,-2.493c-0.694,-0.708 -1.526,-1.268 -2.494,-1.68c-0.968,-0.413 -2.038,-0.619 -3.208,-0.619c-1.172,0 -2.241,0.21 -3.209,0.629c-0.968,0.419 -1.807,0.987 -2.515,1.702c-0.708,0.716 -1.257,1.551 -1.648,2.504c-0.389,0.955 -0.585,1.966 -0.585,3.037c0,1.069 0.196,2.08 0.585,3.034c0.391,0.954 0.932,1.785 1.627,2.493c0.693,0.708 1.524,1.268 2.492,1.68c0.968,0.412 2.039,0.619 3.21,0.619c1.171,0 2.24,-0.21 3.208,-0.629c0.968,-0.42 1.807,-0.986 2.515,-1.703c0.708,-0.716 1.257,-1.55 1.647,-2.503c0.391,-0.954 0.587,-1.967 0.587,-3.036Zm-2.798,0.045c0,0.736 -0.127,1.433 -0.378,2.091c-0.254,0.658 -0.605,1.229 -1.053,1.712c-0.447,0.485 -0.987,0.868 -1.614,1.149c-0.63,0.282 -1.32,0.422 -2.071,0.422c-0.752,0 -1.446,-0.144 -2.082,-0.433c-0.636,-0.288 -1.182,-0.678 -1.636,-1.17c-0.456,-0.492 -0.809,-1.066 -1.063,-1.724c-0.253,-0.657 -0.38,-1.356 -0.38,-2.092c0,-0.736 0.127,-1.434 0.38,-2.092c0.254,-0.657 0.604,-1.228 1.052,-1.712c0.448,-0.485 0.986,-0.868 1.615,-1.15c0.628,-0.282 1.319,-0.422 2.071,-0.422c0.75,0 1.444,0.144 2.08,0.434c0.636,0.288 1.181,0.678 1.637,1.17c0.455,0.491 0.81,1.065 1.064,1.723c0.251,0.657 0.378,1.356 0.378,2.094Zm18.969,2.882l-8.111,-10.493l-2.468,0l0,15.176l2.644,0l0,-10.796l8.352,10.796l2.229,0l0,-15.176l-2.646,0l0,10.493Z" style="fill:#1a1a1a;fill-rule:nonzero;"/><path d="M284.859,68.523l-13.133,0l-14.476,39.002l-14.478,-39.002l-13.449,0l22.389,55.774l10.76,0l22.387,-55.774Zm36.219,55.378l0,-55.378l-12.183,0l0,55.378l12.183,0Zm68.813,-16.376l0,-0.159c0,-2.425 -0.383,-4.509 -1.147,-6.248c-0.766,-1.741 -1.912,-3.258 -3.416,-4.55c-1.502,-1.293 -3.362,-2.399 -5.551,-3.323c-2.187,-0.923 -4.694,-1.753 -7.501,-2.491c-2.373,-0.633 -4.338,-1.187 -5.907,-1.661c-1.556,-0.476 -2.782,-0.976 -3.691,-1.504c-0.898,-0.527 -1.517,-1.121 -1.861,-1.779c-0.342,-0.66 -0.513,-1.437 -0.513,-2.335l0,-0.158c0,-1.371 0.594,-2.518 1.78,-3.441c1.186,-0.923 2.967,-1.385 5.34,-1.385c2.373,0 4.746,0.488 7.119,1.464c2.373,0.975 4.799,2.307 7.278,3.994l6.329,-9.175c-2.847,-2.268 -5.973,-4.008 -9.374,-5.221c-3.403,-1.213 -7.134,-1.82 -11.194,-1.82c-2.847,0 -5.458,0.395 -7.819,1.186c-2.361,0.792 -4.404,1.925 -6.104,3.401c-1.701,1.477 -3.02,3.232 -3.968,5.262c-0.938,2.031 -1.413,4.312 -1.413,6.843l0,0.158c0,2.743 0.436,5.036 1.307,6.883c0.87,1.847 2.109,3.388 3.691,4.628c1.583,1.238 3.52,2.281 5.789,3.125c2.281,0.843 4.811,1.608 7.62,2.293c2.32,0.581 4.22,1.134 5.669,1.662c1.451,0.527 2.585,1.055 3.415,1.581c0.819,0.529 1.371,1.095 1.661,1.701c0.292,0.608 0.436,1.306 0.436,2.097l0,0.158c0,1.635 -0.698,2.915 -2.097,3.837c-1.397,0.923 -3.361,1.385 -5.894,1.385c-3.164,0 -6.077,-0.606 -8.742,-1.819c-2.662,-1.214 -5.26,-2.849 -7.791,-4.905l-7.199,8.622c3.322,3.006 7.015,5.235 11.075,6.685c4.061,1.45 8.202,2.175 12.421,2.175c3.006,0 5.748,-0.382 8.214,-1.146c2.466,-0.765 4.601,-1.873 6.381,-3.323c1.78,-1.451 3.164,-3.244 4.166,-5.379c0.989,-2.137 1.491,-4.575 1.491,-7.318" style="fill:#1a1a1a;fill-rule:nonzero;"/><path d="M453.357,116.86l-3.876,-3.638c-1.635,1.74 -3.467,3.191 -5.497,4.351c-2.031,1.16 -4.364,1.74 -7,1.74c-2.163,0 -4.154,-0.409 -5.972,-1.226c-1.819,-0.816 -3.402,-1.939 -4.746,-3.389c-1.345,-1.449 -2.399,-3.149 -3.164,-5.088c-0.765,-1.95 -1.147,-4.02 -1.147,-6.235c0,-2.215 0.37,-4.271 1.108,-6.196c0.738,-1.913 1.766,-3.6 3.085,-5.05c1.317,-1.45 2.873,-2.57 4.666,-3.387c1.794,-0.818 3.717,-1.226 5.774,-1.226c2.795,0 5.155,0.606 7.08,1.818c1.924,1.215 3.704,2.664 5.339,4.352l4.034,-4.272c-0.949,-1.002 -1.977,-1.95 -3.086,-2.847c-1.106,-0.898 -2.32,-1.676 -3.638,-2.334c-1.319,-0.659 -2.768,-1.173 -4.35,-1.542c-1.582,-0.369 -3.349,-0.555 -5.299,-0.555c-3.006,0 -5.788,0.568 -8.346,1.701c-2.556,1.134 -4.773,2.677 -6.643,4.629c-1.873,1.95 -3.336,4.231 -4.391,6.84c-1.055,2.611 -1.582,5.366 -1.582,8.267c0,2.9 0.527,5.641 1.582,8.226c1.055,2.583 2.518,4.838 4.391,6.762c1.87,1.925 4.087,3.453 6.643,4.588c2.558,1.134 5.34,1.701 8.346,1.701c3.849,0 7.078,-0.751 9.689,-2.241c2.61,-1.503 4.943,-3.415 7,-5.748l0,-0.001Zm48.963,-13.448c0,-2.899 -0.529,-5.641 -1.583,-8.225c-1.054,-2.584 -2.53,-4.839 -4.429,-6.764c-1.898,-1.924 -4.153,-3.453 -6.762,-4.587c-2.611,-1.133 -5.445,-1.701 -8.504,-1.701c-3.111,0 -5.972,0.568 -8.583,1.701c-2.609,1.134 -4.863,2.677 -6.762,4.628c-1.899,1.95 -3.375,4.231 -4.43,6.841c-1.054,2.611 -1.582,5.366 -1.582,8.267c0,2.899 0.528,5.641 1.582,8.225c1.055,2.584 2.531,4.839 4.43,6.763c1.899,1.925 4.139,3.453 6.724,4.588c2.583,1.134 5.404,1.701 8.462,1.701c3.059,0 5.907,-0.567 8.543,-1.701c2.637,-1.135 4.904,-2.677 6.802,-4.628c1.899,-1.95 3.389,-4.231 4.469,-6.842c1.081,-2.61 1.623,-5.365 1.623,-8.266Zm-6.25,0.12c0,2.215 -0.368,4.271 -1.107,6.196c-0.738,1.911 -1.766,3.585 -3.085,5.009c-1.317,1.424 -2.9,2.532 -4.745,3.349c-1.846,0.817 -3.877,1.225 -6.091,1.225c-2.161,0 -4.166,-0.421 -6.012,-1.265c-1.845,-0.844 -3.44,-1.964 -4.786,-3.388c-1.344,-1.423 -2.399,-3.111 -3.163,-5.049c-0.764,-1.951 -1.146,-4.02 -1.146,-6.235c0,-2.215 0.368,-4.271 1.106,-6.196c0.739,-1.913 1.754,-3.6 3.045,-5.05c1.293,-1.45 2.861,-2.57 4.708,-3.387c1.845,-0.818 3.875,-1.226 6.089,-1.226c2.163,0 4.166,0.422 6.012,1.264c1.845,0.845 3.454,1.978 4.826,3.427c1.37,1.451 2.438,3.139 3.202,5.09c0.766,1.951 1.147,4.021 1.147,6.236Zm23.335,-3.045c0,-1.899 0.303,-3.639 0.908,-5.222c0.607,-1.58 1.465,-2.939 2.571,-4.073c1.108,-1.134 2.413,-2.003 3.915,-2.61c1.505,-0.607 3.125,-0.909 4.865,-0.909c3.64,0 6.433,1.106 8.385,3.321c1.951,2.215 2.927,5.221 2.927,9.017l0,23.889l6.09,0l0,-25.391c0,-2.426 -0.356,-4.641 -1.068,-6.645c-0.712,-2.003 -1.74,-3.73 -3.085,-5.181c-1.344,-1.449 -2.979,-2.569 -4.903,-3.362c-1.925,-0.79 -4.127,-1.186 -6.605,-1.186c-3.533,0 -6.407,0.778 -8.622,2.333c-2.215,1.556 -4.007,3.441 -5.378,5.656l0,-7.118l-6.091,0l0,40.894l6.091,0l0,-23.413Z" style="fill:#1a1a1a;fill-rule:nonzero;"/><rect x="201.334" y="61.627" width="4.687" height="134.745" style="fill:#1a1a1a;"/></g></g></svg>