<?xml version="1.0" encoding="UTF-8" standalone="no"?>
<!DOCTYPE svg PUBLIC "-//W3C//DTD SVG 1.1//EN" "http://www.w3.org/Graphics/SVG/1.1/DTD/svg11.dtd">
<svg width="100%" height="100%" viewBox="0 0 300 100" version="1.1" xmlns="http://www.w3.org/2000/svg" xmlns:xlink="http://www.w3.org/1999/xlink" xml:space="preserve" xmlns:serif="http://www.serif.com/" style="fill-rule:evenodd;clip-rule:evenodd;stroke-linejoin:round;stroke-miterlimit:1.41421;">
    <g transform="matrix(0.738812,0,0,0.738812,22.1186,22.1)">
        <path d="M70.122,12L63.191,12L65.625,0L6.981,0L0.787,31L24.166,31L25.756,23L11.941,23L12.731,19L26.555,19L27.958,12L14.166,12L14.954,8L36.906,8L32.311,31L41.844,31L46.437,8L54.44,8L49.847,31L59.453,31L61.83,19L68.759,19L66.384,31L75.944,31L82.142,0L72.556,0L70.122,12ZM111.024,4L114.213,4L115.003,0L111.829,0L111.024,4ZM119.203,4L122.394,4L123.182,0L120.008,0L119.203,4ZM149.031,4L152.22,4L153.012,0L149.836,0L149.031,4ZM164.994,9.908C159.429,9.908 155.524,13.848 154.274,20.72C154.077,21.796 153.977,22.887 153.974,23.98C153.974,28.674 156.807,31.592 161.375,31.592C164.016,31.599 166.549,30.529 168.384,28.63L168.412,28.6L166.643,26.432L166.611,26.394L166.577,26.43C165.355,27.96 163.501,28.853 161.543,28.856C159.366,28.856 157.039,27.55 157.039,23.894C157.047,22.834 157.16,21.776 157.375,20.738C157.702,18.51 158.641,16.416 160.087,14.69C161.266,13.391 162.941,12.649 164.695,12.648C166.391,12.571 167.986,13.481 168.784,14.98L168.81,15.022L171.062,13.11L171.094,13.082L171.07,13.048C169.754,10.993 167.432,9.793 164.994,9.908ZM185.348,9.459C183.086,9.347 180.882,10.22 179.31,11.851L181.702,0L178.618,0L172.422,31L175.506,31L178.078,17.977C179.18,12.489 183.438,12.211 184.278,12.211C184.394,12.199 184.51,12.193 184.626,12.193C186.507,12.193 188.056,13.742 188.056,15.623C188.056,15.718 188.052,15.813 188.044,15.908C188.029,16.569 187.956,17.227 187.828,17.876L185.212,31L188.292,31L190.998,17.591C191.138,16.895 191.21,16.186 191.214,15.476C191.223,15.345 191.228,15.214 191.228,15.082C191.228,11.994 188.687,9.453 185.599,9.453C185.515,9.453 185.432,9.455 185.348,9.459ZM143.771,30.949L143.761,31.001L146.802,31.001L150.952,10.001L147.962,10.001L143.771,30.949ZM87.999,12.944L87.99,13.001L98.312,13.001L84.703,28.466L84.697,28.474L84.186,31.001L98.843,31.001L99.42,28.001L88.463,28.001L102.112,12.536L102.118,12.526L102.631,10.001L88.569,10.001L87.999,12.944ZM138.708,9.745C136.484,9.687 134.356,10.673 132.963,12.407L133.435,10.048L133.443,10.001L130.443,10.001L126.296,30.949L126.288,31.001L129.333,31.001L131.869,18.151C132.518,14.856 135.037,12.463 137.863,12.463C139.018,12.435 140.114,12.986 140.782,13.929L140.812,13.967L143.281,11.743L143.257,11.713C142.125,10.393 140.445,9.666 138.708,9.745ZM120.339,10.001L123.423,10.001L123.415,10.051L119.271,31.001L116.27,31.001L116.28,30.949L116.677,28.769C115.125,30.446 112.909,31.356 110.626,31.253C110.543,31.257 110.461,31.259 110.378,31.259C107.335,31.259 104.832,28.755 104.832,25.713C104.832,25.58 104.837,25.448 104.846,25.316C104.855,24.677 104.927,24.041 105.063,23.417L105.098,23.227L107.72,10.001L110.763,10.001L110.753,10.051L108.176,22.949C108.053,23.589 107.984,24.238 107.969,24.889C107.962,24.977 107.959,25.066 107.959,25.154C107.959,27.021 109.494,28.556 111.361,28.556C111.481,28.556 111.602,28.55 111.722,28.537C112.547,28.537 116.711,28.261 117.798,22.844L120.339,10.001Z" style="fill-rule:nonzero;"/>
    </g>
    <g transform="matrix(1,0,0,1,18.5096,16.8262)">
        <path d="M3.829,54.908L8.32,54.908C9.332,54.908 10.104,54.985 10.636,55.14C11.35,55.35 11.961,55.724 12.47,56.261C12.979,56.797 13.367,57.454 13.632,58.232C13.898,59.009 14.031,59.968 14.031,61.108C14.031,62.11 13.906,62.973 13.657,63.698C13.353,64.583 12.918,65.3 12.354,65.848C11.928,66.263 11.352,66.587 10.627,66.819C10.085,66.991 9.36,67.076 8.453,67.076L3.829,67.076L3.829,54.908ZM6.286,56.966L6.286,65.026L8.121,65.026C8.807,65.026 9.302,64.987 9.606,64.91C10.005,64.81 10.335,64.642 10.598,64.404C10.861,64.166 11.076,63.774 11.242,63.229C11.408,62.684 11.491,61.941 11.491,61C11.491,60.06 11.408,59.337 11.242,58.834C11.076,58.33 10.843,57.937 10.544,57.655C10.246,57.373 9.866,57.182 9.407,57.082C9.064,57.005 8.392,56.966 7.39,56.966L6.286,56.966Z" style="fill-rule:nonzero;"/>
        <path d="M21.203,64.271L23.527,64.661C23.228,65.513 22.756,66.162 22.112,66.607C21.467,67.053 20.66,67.276 19.692,67.276C18.159,67.276 17.025,66.775 16.289,65.773C15.707,64.971 15.417,63.958 15.417,62.735C15.417,61.274 15.799,60.13 16.562,59.303C17.326,58.475 18.292,58.062 19.459,58.062C20.771,58.062 21.806,58.495 22.564,59.361C23.322,60.227 23.685,61.554 23.651,63.341L17.808,63.341C17.824,64.033 18.012,64.571 18.372,64.956C18.732,65.34 19.18,65.533 19.717,65.533C20.082,65.533 20.389,65.433 20.638,65.234C20.887,65.034 21.075,64.714 21.203,64.271ZM21.335,61.913C21.319,61.238 21.144,60.725 20.812,60.374C20.48,60.022 20.076,59.846 19.601,59.846C19.091,59.846 18.671,60.032 18.339,60.403C18.007,60.773 17.844,61.277 17.849,61.913L21.335,61.913Z" style="fill-rule:nonzero;"/>
        <path d="M25.486,58.261L27.661,58.261L27.661,59.556C27.943,59.113 28.325,58.754 28.806,58.477C29.288,58.2 29.822,58.062 30.408,58.062C31.432,58.062 32.301,58.463 33.015,59.265C33.728,60.068 34.085,61.186 34.085,62.619C34.085,64.091 33.726,65.235 33.006,66.051C32.287,66.868 31.415,67.276 30.392,67.276C29.905,67.276 29.463,67.179 29.068,66.985C28.672,66.791 28.255,66.459 27.818,65.989L27.818,70.43L25.486,70.43L25.486,58.261ZM27.793,62.519C27.793,63.51 27.99,64.242 28.383,64.715C28.776,65.188 29.254,65.425 29.819,65.425C30.361,65.425 30.812,65.207 31.172,64.773C31.532,64.339 31.711,63.626 31.711,62.636C31.711,61.711 31.526,61.025 31.155,60.577C30.784,60.129 30.325,59.905 29.777,59.905C29.207,59.905 28.734,60.125 28.358,60.565C27.982,61.004 27.793,61.656 27.793,62.519Z" style="fill-rule:nonzero;"/>
        <path d="M37.68,60.95L35.563,60.569C35.801,59.716 36.21,59.086 36.791,58.676C37.373,58.267 38.236,58.062 39.381,58.062C40.422,58.062 41.196,58.185 41.706,58.431C42.215,58.677 42.573,58.99 42.78,59.369C42.988,59.748 43.092,60.444 43.092,61.457L43.067,64.179C43.067,64.954 43.104,65.526 43.179,65.894C43.254,66.262 43.393,66.656 43.598,67.076L41.29,67.076C41.23,66.922 41.155,66.692 41.066,66.388C41.028,66.249 41,66.158 40.983,66.114C40.585,66.501 40.159,66.791 39.705,66.985C39.251,67.179 38.767,67.276 38.252,67.276C37.345,67.276 36.63,67.029 36.107,66.537C35.584,66.044 35.322,65.422 35.322,64.669C35.322,64.171 35.441,63.727 35.679,63.337C35.917,62.947 36.251,62.648 36.679,62.44C37.108,62.233 37.727,62.052 38.535,61.897C39.625,61.692 40.38,61.501 40.801,61.324L40.801,61.092C40.801,60.643 40.69,60.324 40.469,60.133C40.247,59.942 39.83,59.846 39.215,59.846C38.8,59.846 38.477,59.928 38.244,60.091C38.012,60.255 37.824,60.541 37.68,60.95ZM40.801,62.843C40.502,62.943 40.029,63.062 39.381,63.2C38.734,63.338 38.31,63.474 38.111,63.607C37.807,63.823 37.655,64.096 37.655,64.429C37.655,64.755 37.776,65.037 38.02,65.275C38.263,65.513 38.573,65.632 38.95,65.632C39.37,65.632 39.771,65.494 40.153,65.217C40.435,65.007 40.621,64.749 40.709,64.445C40.77,64.246 40.801,63.867 40.801,63.308L40.801,62.843Z" style="fill-rule:nonzero;"/>
        <path d="M47.624,67.076L45.291,67.076L45.291,58.261L47.458,58.261L47.458,59.514C47.829,58.922 48.162,58.532 48.458,58.344C48.754,58.156 49.09,58.062 49.467,58.062C49.998,58.062 50.51,58.208 51.002,58.502L50.28,60.535C49.887,60.281 49.522,60.154 49.185,60.154C48.858,60.154 48.581,60.244 48.354,60.423C48.128,60.603 47.949,60.928 47.819,61.399C47.689,61.869 47.624,62.854 47.624,64.354L47.624,67.076Z" style="fill-rule:nonzero;"/>
        <path d="M56.049,58.261L56.049,60.12L54.456,60.12L54.456,63.673C54.456,64.393 54.471,64.812 54.501,64.931C54.532,65.05 54.601,65.148 54.709,65.225C54.817,65.303 54.948,65.342 55.103,65.342C55.319,65.342 55.631,65.267 56.041,65.117L56.24,66.927C55.698,67.159 55.084,67.276 54.397,67.276C53.977,67.276 53.598,67.205 53.26,67.064C52.923,66.923 52.675,66.74 52.517,66.516C52.36,66.292 52.25,65.989 52.189,65.607C52.14,65.336 52.115,64.788 52.115,63.964L52.115,60.12L51.044,60.12L51.044,58.261L52.115,58.261L52.115,56.51L54.456,55.148L54.456,58.261L56.049,58.261Z" style="fill-rule:nonzero;"/>
        <path d="M57.494,58.261L59.644,58.261L59.644,59.465C60.413,58.529 61.329,58.062 62.391,58.062C62.956,58.062 63.445,58.178 63.86,58.41C64.275,58.643 64.616,58.994 64.881,59.465C65.269,58.994 65.686,58.643 66.135,58.41C66.583,58.178 67.062,58.062 67.571,58.062C68.218,58.062 68.766,58.193 69.214,58.456C69.663,58.719 69.997,59.105 70.219,59.614C70.379,59.99 70.459,60.599 70.459,61.44L70.459,67.076L68.127,67.076L68.127,62.038C68.127,61.164 68.047,60.599 67.886,60.345C67.67,60.013 67.338,59.846 66.89,59.846C66.564,59.846 66.256,59.946 65.969,60.145C65.681,60.345 65.473,60.636 65.346,61.021C65.219,61.406 65.155,62.013 65.155,62.843L65.155,67.076L62.823,67.076L62.823,62.245C62.823,61.388 62.781,60.834 62.698,60.585C62.615,60.336 62.487,60.151 62.312,60.029C62.138,59.907 61.901,59.846 61.602,59.846C61.243,59.846 60.919,59.943 60.631,60.137C60.344,60.331 60.137,60.61 60.013,60.975C59.888,61.341 59.826,61.947 59.826,62.793L59.826,67.076L57.494,67.076L57.494,58.261Z" style="fill-rule:nonzero;"/>
        <path d="M77.889,64.271L80.213,64.661C79.914,65.513 79.442,66.162 78.798,66.607C78.153,67.053 77.346,67.276 76.378,67.276C74.845,67.276 73.711,66.775 72.975,65.773C72.394,64.971 72.103,63.958 72.103,62.735C72.103,61.274 72.485,60.13 73.248,59.303C74.012,58.475 74.978,58.062 76.145,58.062C77.457,58.062 78.492,58.495 79.25,59.361C80.008,60.227 80.371,61.554 80.337,63.341L74.494,63.341C74.51,64.033 74.698,64.571 75.058,64.956C75.418,65.34 75.866,65.533 76.403,65.533C76.768,65.533 77.075,65.433 77.324,65.234C77.573,65.034 77.761,64.714 77.889,64.271ZM78.021,61.913C78.005,61.238 77.831,60.725 77.498,60.374C77.166,60.022 76.762,59.846 76.287,59.846C75.777,59.846 75.357,60.032 75.025,60.403C74.693,60.773 74.53,61.277 74.535,61.913L78.021,61.913Z" style="fill-rule:nonzero;"/>
        <path d="M90.257,67.076L87.924,67.076L87.924,62.577C87.924,61.626 87.874,61.01 87.775,60.731C87.675,60.451 87.513,60.234 87.289,60.079C87.065,59.924 86.795,59.846 86.48,59.846C86.076,59.846 85.713,59.957 85.393,60.179C85.072,60.4 84.852,60.693 84.733,61.058C84.614,61.424 84.554,62.099 84.554,63.084L84.554,67.076L82.222,67.076L82.222,58.261L84.388,58.261L84.388,59.556C85.157,58.56 86.126,58.062 87.293,58.062C87.808,58.062 88.278,58.155 88.705,58.34C89.131,58.525 89.453,58.762 89.672,59.05C89.89,59.337 90.042,59.664 90.128,60.029C90.214,60.394 90.257,60.917 90.257,61.598L90.257,67.076Z" style="fill-rule:nonzero;"/>
        <path d="M96.665,58.261L96.665,60.12L95.071,60.12L95.071,63.673C95.071,64.393 95.086,64.812 95.117,64.931C95.147,65.05 95.216,65.148 95.324,65.225C95.432,65.303 95.564,65.342 95.719,65.342C95.935,65.342 96.247,65.267 96.657,65.117L96.856,66.927C96.314,67.159 95.699,67.276 95.013,67.276C94.593,67.276 94.213,67.205 93.876,67.064C93.538,66.923 93.291,66.74 93.133,66.516C92.975,66.292 92.866,65.989 92.805,65.607C92.755,65.336 92.73,64.788 92.73,63.964L92.73,60.12L91.66,60.12L91.66,58.261L92.73,58.261L92.73,56.51L95.071,55.148L95.071,58.261L96.665,58.261Z" style="fill-rule:nonzero;"/>
        <path d="M102.467,62.544C102.467,61.77 102.658,61.02 103.04,60.295C103.422,59.57 103.963,59.016 104.663,58.635C105.363,58.253 106.144,58.062 107.008,58.062C108.341,58.062 109.434,58.495 110.287,59.361C111.139,60.227 111.565,61.321 111.565,62.644C111.565,63.978 111.135,65.083 110.274,65.96C109.414,66.837 108.33,67.276 107.024,67.276C106.216,67.276 105.446,67.093 104.713,66.728C103.979,66.363 103.422,65.827 103.04,65.122C102.658,64.416 102.467,63.557 102.467,62.544ZM104.858,62.669C104.858,63.543 105.065,64.213 105.48,64.678C105.895,65.142 106.407,65.375 107.016,65.375C107.625,65.375 108.135,65.142 108.548,64.678C108.96,64.213 109.166,63.538 109.166,62.652C109.166,61.789 108.96,61.125 108.548,60.66C108.135,60.195 107.625,59.963 107.016,59.963C106.407,59.963 105.895,60.195 105.48,60.66C105.065,61.125 104.858,61.794 104.858,62.669Z" style="fill-rule:nonzero;"/>
        <path d="M112.37,58.261L113.665,58.261L113.665,57.597C113.665,56.855 113.744,56.302 113.902,55.937C114.059,55.572 114.35,55.274 114.773,55.044C115.196,54.815 115.732,54.7 116.379,54.7C117.043,54.7 117.694,54.8 118.33,54.999L118.015,56.626C117.644,56.537 117.287,56.493 116.944,56.493C116.606,56.493 116.364,56.572 116.217,56.73C116.071,56.887 115.998,57.19 115.998,57.638L115.998,58.261L117.741,58.261L117.741,60.096L115.998,60.096L115.998,67.076L113.665,67.076L113.665,60.096L112.37,60.096L112.37,58.261Z" style="fill-rule:nonzero;"/>
        <path d="M131.578,62.602L133.96,63.358C133.595,64.686 132.988,65.672 132.138,66.317C131.289,66.962 130.211,67.284 128.905,67.284C127.289,67.284 125.961,66.732 124.921,65.628C123.88,64.524 123.36,63.015 123.36,61.1C123.36,59.075 123.883,57.502 124.929,56.381C125.975,55.26 127.35,54.7 129.055,54.7C130.543,54.7 131.752,55.14 132.682,56.02C133.235,56.54 133.651,57.287 133.927,58.261L131.495,58.842C131.351,58.211 131.051,57.713 130.594,57.348C130.138,56.983 129.583,56.8 128.93,56.8C128.028,56.8 127.296,57.124 126.735,57.771C126.173,58.419 125.892,59.467 125.892,60.917C125.892,62.456 126.169,63.551 126.722,64.204C127.276,64.857 127.995,65.184 128.88,65.184C129.533,65.184 130.095,64.976 130.565,64.561C131.036,64.146 131.373,63.493 131.578,62.602Z" style="fill-rule:nonzero;"/>
        <path d="M135.513,62.544C135.513,61.77 135.704,61.02 136.085,60.295C136.467,59.57 137.008,59.016 137.708,58.635C138.408,58.253 139.19,58.062 140.053,58.062C141.387,58.062 142.48,58.495 143.332,59.361C144.184,60.227 144.61,61.321 144.61,62.644C144.61,63.978 144.18,65.083 143.32,65.96C142.459,66.837 141.376,67.276 140.07,67.276C139.262,67.276 138.491,67.093 137.758,66.728C137.025,66.363 136.467,65.827 136.085,65.122C135.704,64.416 135.513,63.557 135.513,62.544ZM137.903,62.669C137.903,63.543 138.111,64.213 138.526,64.678C138.941,65.142 139.453,65.375 140.061,65.375C140.67,65.375 141.181,65.142 141.593,64.678C142.005,64.213 142.211,63.538 142.211,62.652C142.211,61.789 142.005,61.125 141.593,60.66C141.181,60.195 140.67,59.963 140.061,59.963C139.453,59.963 138.941,60.195 138.526,60.66C138.111,61.125 137.903,61.794 137.903,62.669Z" style="fill-rule:nonzero;"/>
        <path d="M146.262,58.261L148.412,58.261L148.412,59.465C149.181,58.529 150.097,58.062 151.16,58.062C151.724,58.062 152.214,58.178 152.629,58.41C153.044,58.643 153.384,58.994 153.65,59.465C154.037,58.994 154.455,58.643 154.903,58.41C155.352,58.178 155.83,58.062 156.339,58.062C156.987,58.062 157.535,58.193 157.983,58.456C158.431,58.719 158.766,59.105 158.987,59.614C159.148,59.99 159.228,60.599 159.228,61.44L159.228,67.076L156.895,67.076L156.895,62.038C156.895,61.164 156.815,60.599 156.655,60.345C156.439,60.013 156.107,59.846 155.659,59.846C155.332,59.846 155.025,59.946 154.737,60.145C154.449,60.345 154.242,60.636 154.115,61.021C153.987,61.406 153.924,62.013 153.924,62.843L153.924,67.076L151.591,67.076L151.591,62.245C151.591,61.388 151.55,60.834 151.467,60.585C151.384,60.336 151.255,60.151 151.081,60.029C150.906,59.907 150.67,59.846 150.371,59.846C150.011,59.846 149.688,59.943 149.4,60.137C149.112,60.331 148.906,60.61 148.781,60.975C148.657,61.341 148.595,61.947 148.595,62.793L148.595,67.076L146.262,67.076L146.262,58.261Z" style="fill-rule:nonzero;"/>
        <path d="M161.486,58.261L163.661,58.261L163.661,59.556C163.943,59.113 164.325,58.754 164.806,58.477C165.288,58.2 165.822,58.062 166.408,58.062C167.432,58.062 168.301,58.463 169.015,59.265C169.728,60.068 170.085,61.186 170.085,62.619C170.085,64.091 169.726,65.235 169.006,66.051C168.287,66.868 167.415,67.276 166.392,67.276C165.905,67.276 165.463,67.179 165.068,66.985C164.672,66.791 164.255,66.459 163.818,65.989L163.818,70.43L161.486,70.43L161.486,58.261ZM163.793,62.519C163.793,63.51 163.99,64.242 164.383,64.715C164.776,65.188 165.254,65.425 165.819,65.425C166.361,65.425 166.812,65.207 167.172,64.773C167.532,64.339 167.711,63.626 167.711,62.636C167.711,61.711 167.526,61.025 167.155,60.577C166.784,60.129 166.325,59.905 165.777,59.905C165.207,59.905 164.734,60.125 164.358,60.565C163.982,61.004 163.793,61.656 163.793,62.519Z" style="fill-rule:nonzero;"/>
        <path d="M177.739,67.076L177.739,65.757C177.418,66.227 176.996,66.598 176.473,66.869C175.95,67.14 175.398,67.276 174.817,67.276C174.225,67.276 173.693,67.146 173.223,66.886C172.753,66.625 172.412,66.26 172.202,65.79C171.992,65.319 171.887,64.669 171.887,63.839L171.887,58.261L174.219,58.261L174.219,62.312C174.219,63.551 174.262,64.311 174.348,64.59C174.434,64.87 174.59,65.091 174.817,65.254C175.044,65.418 175.331,65.499 175.68,65.499C176.079,65.499 176.435,65.39 176.751,65.171C177.066,64.953 177.282,64.682 177.398,64.358C177.515,64.034 177.573,63.242 177.573,61.98L177.573,58.261L179.905,58.261L179.905,67.076L177.739,67.076Z" style="fill-rule:nonzero;"/>
        <path d="M186.363,58.261L186.363,60.12L184.769,60.12L184.769,63.673C184.769,64.393 184.785,64.812 184.815,64.931C184.846,65.05 184.915,65.148 185.023,65.225C185.131,65.303 185.262,65.342 185.417,65.342C185.633,65.342 185.945,65.267 186.355,65.117L186.554,66.927C186.012,67.159 185.398,67.276 184.711,67.276C184.291,67.276 183.912,67.205 183.574,67.064C183.237,66.923 182.989,66.74 182.831,66.516C182.674,66.292 182.564,65.989 182.503,65.607C182.454,65.336 182.429,64.788 182.429,63.964L182.429,60.12L181.358,60.12L181.358,58.261L182.429,58.261L182.429,56.51L184.769,55.148L184.769,58.261L186.363,58.261Z" style="fill-rule:nonzero;"/>
        <path d="M193.087,64.271L195.411,64.661C195.112,65.513 194.64,66.162 193.996,66.607C193.351,67.053 192.545,67.276 191.576,67.276C190.043,67.276 188.909,66.775 188.173,65.773C187.592,64.971 187.301,63.958 187.301,62.735C187.301,61.274 187.683,60.13 188.447,59.303C189.21,58.475 190.176,58.062 191.344,58.062C192.655,58.062 193.69,58.495 194.448,59.361C195.206,60.227 195.569,61.554 195.536,63.341L189.692,63.341C189.708,64.033 189.897,64.571 190.256,64.956C190.616,65.34 191.064,65.533 191.601,65.533C191.966,65.533 192.273,65.433 192.522,65.234C192.771,65.034 192.96,64.714 193.087,64.271ZM193.22,61.913C193.203,61.238 193.029,60.725 192.697,60.374C192.365,60.022 191.961,59.846 191.485,59.846C190.976,59.846 190.555,60.032 190.223,60.403C189.891,60.773 189.728,61.277 189.733,61.913L193.22,61.913Z" style="fill-rule:nonzero;"/>
        <path d="M199.669,67.076L197.337,67.076L197.337,58.261L199.503,58.261L199.503,59.514C199.874,58.922 200.208,58.532 200.504,58.344C200.8,58.156 201.136,58.062 201.512,58.062C202.043,58.062 202.555,58.208 203.048,58.502L202.326,60.535C201.933,60.281 201.567,60.154 201.23,60.154C200.903,60.154 200.627,60.244 200.4,60.423C200.173,60.603 199.994,60.928 199.864,61.399C199.734,61.869 199.669,62.854 199.669,64.354L199.669,67.076Z" style="fill-rule:nonzero;"/>
        <path d="M208.169,63.117L210.56,62.885C210.704,63.687 210.996,64.276 211.436,64.653C211.876,65.029 212.469,65.217 213.216,65.217C214.008,65.217 214.604,65.05 215.005,64.715C215.406,64.38 215.607,63.989 215.607,63.54C215.607,63.253 215.522,63.008 215.354,62.806C215.185,62.604 214.89,62.428 214.47,62.279C214.182,62.179 213.526,62.002 212.502,61.747C211.185,61.421 210.261,61.02 209.73,60.544C208.983,59.874 208.609,59.058 208.609,58.095C208.609,57.475 208.785,56.896 209.136,56.356C209.488,55.816 209.994,55.406 210.655,55.123C211.317,54.841 212.115,54.7 213.05,54.7C214.578,54.7 215.727,55.035 216.499,55.704C217.271,56.374 217.677,57.268 217.715,58.386L215.258,58.493C215.153,57.868 214.928,57.419 214.582,57.145C214.236,56.871 213.717,56.734 213.025,56.734C212.311,56.734 211.753,56.88 211.349,57.174C211.088,57.362 210.958,57.614 210.958,57.929C210.958,58.217 211.08,58.463 211.324,58.668C211.634,58.928 212.386,59.199 213.581,59.481C214.777,59.763 215.661,60.055 216.234,60.357C216.806,60.659 217.255,61.071 217.578,61.594C217.902,62.117 218.064,62.763 218.064,63.532C218.064,64.229 217.87,64.882 217.483,65.491C217.095,66.1 216.548,66.552 215.839,66.848C215.131,67.144 214.248,67.292 213.191,67.292C211.653,67.292 210.471,66.937 209.647,66.226C208.822,65.515 208.33,64.478 208.169,63.117Z" style="fill-rule:nonzero;"/>
        <path d="M227.801,60.867L225.501,61.283C225.424,60.823 225.248,60.477 224.974,60.245C224.7,60.013 224.345,59.896 223.908,59.896C223.327,59.896 222.863,60.097 222.517,60.498C222.171,60.899 221.998,61.57 221.998,62.511C221.998,63.557 222.174,64.296 222.526,64.727C222.877,65.159 223.349,65.375 223.941,65.375C224.384,65.375 224.746,65.249 225.028,64.997C225.31,64.745 225.51,64.312 225.626,63.698L227.917,64.088C227.679,65.14 227.222,65.934 226.547,66.471C225.872,67.007 224.967,67.276 223.833,67.276C222.544,67.276 221.516,66.869 220.749,66.055C219.983,65.242 219.6,64.116 219.6,62.677C219.6,61.222 219.984,60.089 220.753,59.278C221.523,58.467 222.563,58.062 223.874,58.062C224.948,58.062 225.802,58.293 226.435,58.755C227.069,59.217 227.524,59.921 227.801,60.867Z" style="fill-rule:nonzero;"/>
        <path d="M229.569,57.066L229.569,54.908L231.901,54.908L231.901,57.066L229.569,57.066ZM229.569,67.076L229.569,58.261L231.901,58.261L231.901,67.076L229.569,67.076Z" style="fill-rule:nonzero;"/>
        <path d="M239.397,64.271L241.721,64.661C241.422,65.513 240.951,66.162 240.306,66.607C239.661,67.053 238.855,67.276 237.886,67.276C236.353,67.276 235.219,66.775 234.483,65.773C233.902,64.971 233.611,63.958 233.611,62.735C233.611,61.274 233.993,60.13 234.757,59.303C235.52,58.475 236.486,58.062 237.654,58.062C238.965,58.062 240,58.495 240.758,59.361C241.516,60.227 241.879,61.554 241.846,63.341L236.002,63.341C236.019,64.033 236.207,64.571 236.566,64.956C236.926,65.34 237.374,65.533 237.911,65.533C238.276,65.533 238.583,65.433 238.832,65.234C239.081,65.034 239.27,64.714 239.397,64.271ZM239.53,61.913C239.513,61.238 239.339,60.725 239.007,60.374C238.675,60.022 238.271,59.846 237.795,59.846C237.286,59.846 236.865,60.032 236.533,60.403C236.201,60.773 236.038,61.277 236.043,61.913L239.53,61.913Z" style="fill-rule:nonzero;"/>
        <path d="M251.765,67.076L249.433,67.076L249.433,62.577C249.433,61.626 249.383,61.01 249.283,60.731C249.184,60.451 249.022,60.234 248.798,60.079C248.573,59.924 248.304,59.846 247.988,59.846C247.584,59.846 247.222,59.957 246.901,60.179C246.58,60.4 246.36,60.693 246.241,61.058C246.122,61.424 246.062,62.099 246.062,63.084L246.062,67.076L243.73,67.076L243.73,58.261L245.896,58.261L245.896,59.556C246.666,58.56 247.634,58.062 248.802,58.062C249.316,58.062 249.787,58.155 250.213,58.34C250.639,58.525 250.961,58.762 251.18,59.05C251.398,59.337 251.551,59.664 251.636,60.029C251.722,60.394 251.765,60.917 251.765,61.598L251.765,67.076Z" style="fill-rule:nonzero;"/>
        <path d="M261.817,60.867L259.518,61.283C259.441,60.823 259.265,60.477 258.991,60.245C258.717,60.013 258.361,59.896 257.924,59.896C257.343,59.896 256.88,60.097 256.534,60.498C256.188,60.899 256.015,61.57 256.015,62.511C256.015,63.557 256.191,64.296 256.542,64.727C256.894,65.159 257.365,65.375 257.957,65.375C258.4,65.375 258.763,65.249 259.045,64.997C259.327,64.745 259.526,64.312 259.643,63.698L261.934,64.088C261.696,65.14 261.239,65.934 260.564,66.471C259.889,67.007 258.984,67.276 257.85,67.276C256.56,67.276 255.532,66.869 254.766,66.055C253.999,65.242 253.616,64.116 253.616,62.677C253.616,61.222 254.001,60.089 254.77,59.278C255.539,58.467 256.58,58.062 257.891,58.062C258.965,58.062 259.818,58.293 260.452,58.755C261.085,59.217 261.541,59.921 261.817,60.867Z" style="fill-rule:nonzero;"/>
        <path d="M268.69,64.271L271.015,64.661C270.716,65.513 270.244,66.162 269.599,66.607C268.955,67.053 268.148,67.276 267.18,67.276C265.647,67.276 264.512,66.775 263.776,65.773C263.195,64.971 262.905,63.958 262.905,62.735C262.905,61.274 263.287,60.13 264.05,59.303C264.814,58.475 265.78,58.062 266.947,58.062C268.259,58.062 269.294,58.495 270.052,59.361C270.81,60.227 271.172,61.554 271.139,63.341L265.295,63.341C265.312,64.033 265.5,64.571 265.86,64.956C266.22,65.34 266.668,65.533 267.205,65.533C267.57,65.533 267.877,65.433 268.126,65.234C268.375,65.034 268.563,64.714 268.69,64.271ZM268.823,61.913C268.807,61.238 268.632,60.725 268.3,60.374C267.968,60.022 267.564,59.846 267.088,59.846C266.579,59.846 266.159,60.032 265.827,60.403C265.495,60.773 265.331,61.277 265.337,61.913L268.823,61.913Z" style="fill-rule:nonzero;"/>
    </g>
</svg>
