<?xml version="1.0" encoding="utf-8"?>
<!-- Generator: Adobe Illustrator 21.0.0, SVG Export Plug-In . SVG Version: 6.00 Build 0)  -->
<svg version="1.1"
	 id="svg2" xmlns:cc="http://creativecommons.org/ns#" xmlns:dc="http://purl.org/dc/elements/1.1/" xmlns:inkscape="http://www.inkscape.org/namespaces/inkscape" xmlns:rdf="http://www.w3.org/1999/02/22-rdf-syntax-ns#" xmlns:svg="http://www.w3.org/2000/svg"
	 xmlns="http://www.w3.org/2000/svg" xmlns:xlink="http://www.w3.org/1999/xlink" x="0px" y="0px" viewBox="68.375 -5 160 160"
	 enable-background="new 68.375 -5 160 160" xml:space="preserve">
<g id="g10" transform="matrix(1.25,0,0,-1.25,0,150)">
	<g id="g12" transform="scale(0.1,0.1)">
		<path id="path14" inkscape:connector-curvature="0" fill="#F7E300" d="M1209.102,7.32
			c-43.141,17.414-63.992,66.493-46.586,109.626c17.414,43.125,66.5,63.976,109.64,46.554c43.141-17.422,63.993-66.5,46.578-109.625
			C1301.328,10.75,1252.234-10.094,1209.102,7.32z M1000.328,4.805c-23.586,9.523-34.988,36.351-25.469,59.93
			c9.52,23.586,36.352,34.984,59.942,25.453c23.59-9.515,34.988-36.351,25.469-59.93C1050.75,6.672,1023.91-4.718,1000.328,4.805z
			 M1065.832,1128.73c-22.344-52.199,6.027-121.32,62.168-149.703c-142.086-49.011-230.258-202.832-200.863-340.633
			c20.824-74.934,70.578-144.449,162.152-166.973c63.493-15.602,150.07,10.203,185.539,79.922
			c27.883,54.82,6.211,118.492-42.922,155.457c-19.141,14.41-71.782,42.324-118.266,10.367
			c12.359,17.07,26.359,25.715,36.969,29.328c26.539,9.035,51.422,6.687,71.874-0.637c46.282-16.57,81.305-53.953,97.063-96.801
			c49.273-133.902-67.258-266.465-215.227-263.793c-105.37,1.898-200.777,52.11-258.773,140.406
			c-9.707-21.398-25.094-40.555-45.73-55.016c-61.43-43.046-146.09-28.172-189.098,33.227
			c-43.011,61.398-28.082,146.058,33.344,189.105c44.222,30.989,100.492,31.958,144.594,7.153
			c-1.015,13.258-1.457,26.875-1.289,40.84C789.465,917.141,929.55,1077.149,1065.832,1128.73z M1684.984,989.703
			c6.485-46.062-25.586-88.653-71.633-95.129c-46.062-6.477-88.648,25.613-95.14,71.676c-6.493,46.058,25.578,88.648,71.64,95.129
			C1635.898,1067.859,1678.484,1035.77,1684.984,989.703z M1791.547,810.16c3.554-25.179-13.985-48.469-39.157-52.008
			c-25.179-3.542-48.469,14-52.015,39.188c-3.555,25.183,13.984,48.465,39.164,52.008C1764.711,852.89,1788,835.344,1791.547,810.16
			z M1447.016,1076.25c8.195-58.141-21.727-112.848-70.727-138.867c23.305-8.754,46.79-20.016,70.258-33.946
			c151.515-89.898,220.054-291.219,196.578-435.031c-34.031,45.445-108.086,55.438-160.734,21
			c28.594,147.566-60.531,300.832-194.562,344.281c-75.312,19.43-160.386,11.102-225.679-56.949
			c-45.258-47.176-66.203-135.058-23.559-200.637c33.531-51.562,99.52-64.625,156.09-40.554c22.054,9.374,72.554,41,68.117,97.238
			c8.602-19.238,9.094-35.687,6.914-46.683c-5.446-27.508-19.922-47.875-36.493-61.93c-37.484-31.797-87.378-43.438-132.359-35.664
			c-140.602,24.289-197.144,191.484-120.847,318.293c52.137,86.656,138.206,143.121,238.254,152.922
			c-21.031,20.305-35.695,47.528-40.086,78.727c-10.462,74.262,41.25,142.922,115.492,153.359
			C1367.906,1202.25,1436.57,1150.519,1447.016,1076.25z M766.766,320.218c56.656,3.798,105.367,60.454,105.164,123.36
			c108.18-104.352,285.262-113.078,394.695-24.328c57.313,52.578,96.672,128.468,75.157,220.285
			c-14.922,63.652-77.211,129.082-155.438,129.031c-61.504-0.039-108.394-48.258-119.035-108.82
			c-4.137-23.602-5.118-83.168,44.461-110.09c-20.82,3.266-34.879,11.821-42.918,19.633c-20.101,19.539-29.301,42.782-32.062,64.336
			c-6.25,48.762,11.161,96.934,42.18,130.43c96.938,104.688,267.961,61.047,332.766-72.004
			c41.266-84.738,44.484-179.91,7.282-264.706c27.328,7.187,57.109,5.953,85.343-5.446
			c69.539-28.086,103.157-107.211,75.094-176.726c-28.078-69.531-107.218-103.118-176.766-75.031
			c-53.515,21.61-85.758,73.453-84.984,127.875c-23.11-18.469-49.438-35.234-79.023-49.875
			C1080.77,170.039,874.598,222.203,766.766,320.218z M613.348,942.652c38.102,26.703,90.613,17.477,117.297-20.609
			c26.683-38.086,17.43-90.606-20.668-117.309c-38.098-26.703-90.614-17.477-117.297,20.61
			C565.996,863.43,575.25,915.95,613.348,942.652z M724.942,1119.121c20.832,14.609,49.542,9.559,64.129-11.262
			c14.59-20.82,9.531-49.539-11.301-64.141c-20.828-14.598-49.539-9.558-64.129,11.27
			C699.05,1075.809,704.114,1104.531,724.942,1119.121"/>
	</g>
</g>
</svg>
