<?xml version="1.0" encoding="UTF-8" standalone="no"?>
<svg
   xmlns:dc="http://purl.org/dc/elements/1.1/"
   xmlns:cc="http://creativecommons.org/ns#"
   xmlns:rdf="http://www.w3.org/1999/02/22-rdf-syntax-ns#"
   xmlns:svg="http://www.w3.org/2000/svg"
   xmlns="http://www.w3.org/2000/svg"
   viewBox="0 0 378.64001 134.14667"
   height="134.14667"
   width="378.64001"
   xml:space="preserve"
   id="svg2"
   version="1.1"><metadata
     id="metadata8"><rdf:RDF><cc:Work
         rdf:about=""><dc:format>image/svg+xml</dc:format><dc:type
           rdf:resource="http://purl.org/dc/dcmitype/StillImage" /></cc:Work></rdf:RDF></metadata><defs
     id="defs6" /><g
     transform="matrix(1.3333333,0,0,-1.3333333,0,134.14667)"
     id="g10"><g
       transform="scale(0.1)"
       id="g12"><path
         id="path14"
         style="fill:#718085;fill-opacity:1;fill-rule:nonzero;stroke:none"
         d="M 7.06641,56.5586 C 8.33984,37.2227 15.2148,22.9648 27.6836,13.7734 40.1445,4.58984 57.3203,0 79.2109,0 89.918,0 99.3047,1.30859 107.375,3.94922 c 8.07,2.64062 14.82,6.23048 20.254,10.79298 5.43,4.5508 9.469,9.9023 12.105,16.0547 2.637,6.1523 3.954,12.8203 3.954,20.0078 0,15.1875 -4.239,26.8086 -12.704,34.8828 -8.468,8.0664 -21.734,13.7813 -39.7848,17.1285 l -23.7304,4.563 c -10.2305,2.07 -17.379,4.949 -21.4532,8.625 -4.0742,3.668 -6.1133,9.266 -6.1133,16.773 0,3.039 0.6016,5.957 1.7969,8.75 1.2031,2.793 3.1953,5.274 5.9922,7.434 2.7969,2.156 6.4766,3.836 11.0274,5.039 4.5546,1.191 10.2617,1.797 17.1367,1.797 11.9883,0 20.7343,-2.324 26.2465,-6.953 5.511,-4.641 9.39,-11.75 11.625,-21.34 l 27.324,4.316 c -0.957,6.231 -2.719,12.227 -5.274,17.981 -2.558,5.75 -6.312,10.82 -11.261,15.222 -4.957,4.387 -11.426,7.942 -19.414,10.665 -7.9965,2.714 -17.9028,4.074 -29.7231,4.074 -9.2734,0 -17.8594,-1.008 -25.7695,-3 -7.9102,-2 -14.7383,-5.028 -20.4922,-9.102 -5.75,-4.082 -10.2695,-9.156 -13.5391,-15.222 -3.2812,-6.075 -4.9179,-13.184 -4.9179,-21.329 0,-8.156 1.1562,-15.066 3.4765,-20.73 2.3164,-5.688 5.7539,-10.4806 10.3086,-14.3868 C 29,92.0742 34.6289,88.9219 41.3438,86.5195 48.0547,84.1289 55.7227,82.125 64.3516,80.5313 l 21.8125,-4.0704 c 5.4297,-0.9687 9.9023,-2.2851 13.4218,-3.957 3.5161,-1.6797 6.3091,-3.6406 8.3911,-5.875 2.074,-2.2383 3.515,-4.668 4.316,-7.3086 0.797,-2.6367 1.195,-5.3203 1.195,-8.0234 0,-3.6836 -0.562,-7.1602 -1.679,-10.4336 -1.118,-3.2774 -3.039,-6.1094 -5.75,-8.5039 -2.715,-2.4024 -6.3168,-4.3164 -10.7895,-5.7617 -4.4765,-1.4375 -9.9882,-2.1485 -16.539,-2.1485 -13.4219,0 -23.5274,2.5469 -30.3164,7.6641 -6.793,5.1094 -10.8282,13.2656 -12.1055,24.4453 z M 183.719,4.30859 h 115.047 l 3.355,24.92581 h -89.402 v 50.5742 h 80.051 v 25.1684 h -80.051 v 45.546 h 84.847 v 24.922 H 183.719 Z M 451.926,62.0742 c -0.805,-5.75 -2.125,-10.9062 -3.953,-15.457 -1.844,-4.5508 -4.364,-8.4375 -7.555,-11.6211 -3.199,-3.2031 -7.152,-5.6836 -11.859,-7.4336 -4.719,-1.7578 -10.43,-2.6367 -17.141,-2.6367 -7.52,0 -14.184,1.4765 -20.016,4.4336 -5.839,2.9492 -10.828,7.2695 -14.98,12.9414 -4.16,5.6719 -7.309,12.5 -9.469,20.4961 -2.156,7.9804 -3.234,17.0117 -3.234,27.082 0,9.9024 1.035,18.8551 3.121,26.8441 2.066,7.992 5.148,14.816 9.223,20.492 4.078,5.672 9.066,10.027 14.98,13.062 5.906,3.039 12.703,4.551 20.375,4.551 6.23,0 11.582,-0.828 16.059,-2.508 4.468,-1.679 8.265,-4.082 11.382,-7.199 3.118,-3.113 5.633,-6.902 7.555,-11.375 1.914,-4.484 3.504,-9.59 4.789,-15.344 l 28.524,4.075 c -1.598,8.632 -4.043,16.453 -7.309,23.488 -3.281,7.027 -7.672,13.062 -13.184,18.094 -5.511,5.039 -12.191,8.906 -20.011,11.629 -7.832,2.714 -17.106,4.074 -27.805,4.074 -11.504,0 -22.051,-2.043 -31.641,-6.114 -9.586,-4.074 -17.824,-9.992 -24.687,-17.734 -6.875,-7.754 -12.188,-17.219 -15.938,-28.41 -3.761,-11.18 -5.636,-23.809 -5.636,-37.8595 0,-13.75 1.714,-26.1718 5.16,-37.2773 3.429,-11.1016 8.465,-20.5352 15.094,-28.2774 6.628,-7.7539 14.777,-13.7109 24.449,-17.86324 C 387.883,2.07813 398.867,0 411.18,0 c 11.175,0 21.004,1.55859 29.476,4.67188 8.465,3.11718 15.66,7.47262 21.571,13.05862 5.91,5.5937 10.546,12.1484 13.902,19.6562 3.359,7.5117 5.512,15.7422 6.476,24.6875 z M 519.27,175.445 V 73.5781 c 0,-25.5664 5.671,-44.2187 17.015,-55.9648 C 547.629,5.85938 564.25,0 586.145,0 c 10.062,0 19.175,1.30859 27.324,3.94922 8.148,2.64062 15.176,6.87498 21.09,12.70708 5.914,5.8281 10.468,13.3398 13.66,22.5273 3.195,9.1914 4.797,20.4102 4.797,33.6719 V 175.445 H 624.012 V 72.8555 c 0,-16.1328 -2.836,-28.1524 -8.508,-36.0625 -5.68,-7.9102 -15.387,-11.8672 -29.121,-11.8672 -13.903,0 -23.774,3.957 -29.606,11.8672 -5.828,7.9101 -8.742,19.9297 -8.742,36.0625 V 175.445 Z M 727.313,96.3516 V 151.48 h 29.242 c 6.871,0 12.621,-0.644 17.258,-1.925 4.636,-1.278 8.347,-3.075 11.144,-5.387 2.793,-2.316 4.797,-5.121 5.992,-8.391 1.196,-3.281 1.797,-6.914 1.797,-10.91 0,-4.304 -0.519,-8.222 -1.558,-11.738 -1.04,-3.524 -2.793,-6.512 -5.274,-8.992 -2.476,-2.469 -5.867,-4.3948 -10.184,-5.7542 -4.316,-1.3555 -9.746,-2.0312 -16.3,-2.0312 z M 698.789,175.445 V 4.30859 h 28.524 V 71.8984 h 30.675 c 1.766,0 3.442,0.0391 5.035,0.1289 1.598,0.0665 3.118,0.1954 4.555,0.3516 l 30.68,-68.07031 h 31.64 L 794.426,79.0977 c 9.746,4.6289 16.816,10.7031 21.211,18.2109 4.394,7.5114 6.59,16.8594 6.59,28.0464 0,5.754 -0.957,11.575 -2.875,17.493 -1.918,5.906 -5.313,11.308 -10.184,16.179 -4.879,4.875 -11.512,8.828 -19.898,11.868 -8.387,3.035 -19.051,4.55 -31.997,4.55 z M 864.895,4.30859 h 115.046 l 3.356,24.92581 h -89.402 v 50.5742 h 80.05 v 25.1684 h -80.05 v 45.546 h 84.847 v 24.922 H 864.895 Z m 205.405,0 h 29.96 l 15.82,43.62501 h 66.39 l 16.06,-43.62501 h 30.92 l -65.2,171.13641 h -28.76 z m 53.69,67.83591 25.16,70.4685 25.41,-70.4685 z m 241.36,-10.0703 c -0.8,-5.75 -2.12,-10.9062 -3.96,-15.457 -1.84,-4.5508 -4.35,-8.4375 -7.55,-11.6211 -3.19,-3.2031 -7.15,-5.6836 -11.86,-7.4336 -4.72,-1.7578 -10.43,-2.6367 -17.13,-2.6367 -7.52,0 -14.19,1.4765 -20.02,4.4336 -5.83,2.9492 -10.83,7.2695 -14.98,12.9414 -4.15,5.6719 -7.31,12.5 -9.47,20.4961 -2.16,7.9804 -3.23,17.0117 -3.23,27.082 0,9.9024 1.03,18.8551 3.11,26.8441 2.08,7.992 5.16,14.816 9.23,20.492 4.08,5.672 9.07,10.027 14.98,13.062 5.91,3.039 12.7,4.551 20.38,4.551 6.23,0 11.57,-0.828 16.05,-2.508 4.47,-1.679 8.27,-4.082 11.39,-7.199 3.11,-3.113 5.63,-6.902 7.55,-11.375 1.91,-4.484 3.51,-9.59 4.79,-15.344 l 28.53,4.075 c -1.61,8.632 -4.04,16.453 -7.32,23.488 -3.27,7.027 -7.66,13.062 -13.18,18.094 -5.51,5.039 -12.18,8.906 -20.01,11.629 -7.83,2.714 -17.1,4.074 -27.8,4.074 -11.51,0 -22.06,-2.043 -31.65,-6.114 -9.58,-4.074 -17.81,-9.992 -24.68,-17.734 -6.88,-7.754 -12.19,-17.219 -15.94,-28.41 -3.76,-11.18 -5.63,-23.809 -5.63,-37.8595 0,-13.75 1.71,-26.1718 5.15,-37.2773 3.43,-11.1016 8.46,-20.5352 15.1,-28.2774 6.63,-7.7539 14.78,-13.7109 24.45,-17.86324 C 1301.31,2.07813 1312.3,0 1324.6,0 c 11.19,0 21.01,1.55859 29.48,4.67188 8.47,3.11718 15.66,7.47262 21.58,13.05862 5.91,5.5937 10.54,12.1484 13.9,19.6562 3.35,7.5117 5.51,15.7422 6.47,24.6875 z m 182.64,0 c -0.81,-5.75 -2.12,-10.9062 -3.96,-15.457 -1.84,-4.5508 -4.35,-8.4375 -7.55,-11.6211 -3.2,-3.2031 -7.15,-5.6836 -11.86,-7.4336 -4.72,-1.7578 -10.43,-2.6367 -17.14,-2.6367 -7.51,0 -14.18,1.4765 -20.02,4.4336 -5.83,2.9492 -10.82,7.2695 -14.97,12.9414 -4.16,5.6719 -7.32,12.5 -9.47,20.4961 -2.16,7.9804 -3.24,17.0117 -3.24,27.082 0,9.9024 1.04,18.8551 3.12,26.8441 2.07,7.992 5.15,14.816 9.23,20.492 4.07,5.672 9.06,10.027 14.98,13.062 5.9,3.039 12.7,4.551 20.37,4.551 6.23,0 11.58,-0.828 16.06,-2.508 4.47,-1.679 8.27,-4.082 11.38,-7.199 3.12,-3.113 5.63,-6.902 7.55,-11.375 1.92,-4.484 3.52,-9.59 4.8,-15.344 l 28.52,4.075 c -1.6,8.632 -4.04,16.453 -7.31,23.488 -3.27,7.027 -7.67,13.062 -13.19,18.094 -5.51,5.039 -12.18,8.906 -20.01,11.629 -7.83,2.714 -17.09,4.074 -27.8,4.074 -11.51,0 -22.05,-2.043 -31.64,-6.114 -9.59,-4.074 -17.82,-9.992 -24.69,-17.734 -6.87,-7.754 -12.18,-17.219 -15.94,-28.41 -3.75,-11.18 -5.63,-23.809 -5.63,-37.8595 0,-13.75 1.72,-26.1718 5.15,-37.2773 3.44,-11.1016 8.47,-20.5352 15.11,-28.2774 6.62,-7.7539 14.77,-13.7109 24.44,-17.86324 C 1483.95,2.07813 1494.93,0 1507.24,0 c 11.18,0 21.01,1.55859 29.48,4.67188 8.47,3.11718 15.66,7.47262 21.57,13.05862 5.91,5.5937 10.55,12.1484 13.9,19.6562 3.36,7.5117 5.52,15.7422 6.47,24.6875 z m 69.99,-57.76561 h 115.04 l 3.36,24.92581 h -89.41 v 50.5742 h 80.06 v 25.1684 h -80.06 v 45.546 h 84.86 v 24.922 h -113.85 z m 145.24,52.25001 c 1.27,-19.3359 8.15,-33.5938 20.62,-42.7852 C 1796.3,4.58984 1813.48,0 1835.37,0 c 10.71,0 20.09,1.30859 28.16,3.94922 8.07,2.64062 14.82,6.23048 20.25,10.79298 5.44,4.5508 9.47,9.9023 12.11,16.0547 2.64,6.1523 3.96,12.8203 3.96,20.0078 0,15.1875 -4.24,26.8086 -12.71,34.8828 -8.47,8.0664 -21.74,13.7813 -39.78,17.1285 l -23.74,4.563 c -10.23,2.07 -17.38,4.949 -21.45,8.625 -4.07,3.668 -6.11,9.266 -6.11,16.773 0,3.039 0.6,5.957 1.79,8.75 1.2,2.793 3.2,5.274 6,7.434 2.79,2.156 6.47,3.836 11.02,5.039 4.56,1.191 10.27,1.797 17.14,1.797 11.99,0 20.74,-2.324 26.24,-6.953 5.52,-4.641 9.4,-11.75 11.63,-21.34 l 27.33,4.316 c -0.96,6.231 -2.73,12.227 -5.27,17.981 -2.56,5.75 -6.32,10.82 -11.27,15.222 -4.96,4.387 -11.43,7.942 -19.42,10.665 -7.99,2.714 -17.9,4.074 -29.71,4.074 -9.28,0 -17.87,-1.008 -25.78,-3 -7.91,-2 -14.73,-5.028 -20.48,-9.102 -5.76,-4.082 -10.28,-9.156 -13.55,-15.222 -3.28,-6.075 -4.91,-13.184 -4.91,-21.329 0,-8.156 1.15,-15.066 3.47,-20.73 2.32,-5.688 5.76,-10.4806 10.31,-14.3868 4.56,-3.918 10.18,-7.0703 16.9,-9.4727 6.71,-2.3906 14.38,-4.3945 23.01,-5.9882 l 21.81,-4.0704 c 5.43,-0.9687 9.9,-2.2851 13.42,-3.957 3.52,-1.6797 6.31,-3.6406 8.39,-5.875 2.07,-2.2383 3.52,-4.668 4.32,-7.3086 0.79,-2.6367 1.19,-5.3203 1.19,-8.0234 0,-3.6836 -0.56,-7.1602 -1.68,-10.4336 -1.11,-3.2774 -3.04,-6.1094 -5.75,-8.5039 -2.72,-2.4024 -6.31,-4.3164 -10.78,-5.7617 -4.48,-1.4375 -9.99,-2.1485 -16.55,-2.1485 -13.41,0 -23.52,2.5469 -30.31,7.6641 -6.79,5.1094 -10.83,13.2656 -12.11,24.4453 z m 168.73,0 c 1.28,-19.3359 8.16,-33.5938 20.62,-42.7852 C 1965.03,4.58984 1982.21,0 2004.1,0 c 10.71,0 20.1,1.30859 28.17,3.94922 8.06,2.64062 14.82,6.23048 20.25,10.79298 5.43,4.5508 9.46,9.9023 12.1,16.0547 2.64,6.1523 3.96,12.8203 3.96,20.0078 0,15.1875 -4.23,26.8086 -12.71,34.8828 -8.47,8.0664 -21.73,13.7813 -39.78,17.1285 l -23.73,4.563 c -10.23,2.07 -17.38,4.949 -21.45,8.625 -4.08,3.668 -6.11,9.266 -6.11,16.773 0,3.039 0.59,5.957 1.79,8.75 1.2,2.793 3.2,5.274 5.99,7.434 2.8,2.156 6.47,3.836 11.03,5.039 4.56,1.191 10.27,1.797 17.13,1.797 11.99,0 20.74,-2.324 26.25,-6.953 5.51,-4.641 9.39,-11.75 11.63,-21.34 l 27.32,4.316 c -0.96,6.231 -2.72,12.227 -5.27,17.981 -2.55,5.75 -6.31,10.82 -11.26,15.222 -4.96,4.387 -11.43,7.942 -19.42,10.665 -8,2.714 -17.9,4.074 -29.72,4.074 -9.27,0 -17.86,-1.008 -25.77,-3 -7.91,-2 -14.74,-5.028 -20.49,-9.102 -5.76,-4.082 -10.27,-9.156 -13.55,-15.222 -3.27,-6.075 -4.91,-13.184 -4.91,-21.329 0,-8.156 1.16,-15.066 3.48,-20.73 2.31,-5.688 5.75,-10.4806 10.31,-14.3868 4.55,-3.918 10.18,-7.0703 16.89,-9.4727 6.71,-2.3906 14.39,-4.3945 23.01,-5.9882 l 21.82,-4.0704 c 5.43,-0.9687 9.9,-2.2851 13.41,-3.957 3.52,-1.6797 6.32,-3.6406 8.39,-5.875 2.08,-2.2383 3.52,-4.668 4.32,-7.3086 0.8,-2.6367 1.2,-5.3203 1.2,-8.0234 0,-3.6836 -0.57,-7.1602 -1.68,-10.4336 -1.12,-3.2774 -3.04,-6.1094 -5.75,-8.5039 -2.73,-2.4024 -6.32,-4.3164 -10.79,-5.7617 -4.47,-1.4375 -9.98,-2.1485 -16.54,-2.1485 -13.42,0 -23.52,2.5469 -30.32,7.6641 -6.79,5.1094 -10.82,13.2656 -12.1,24.4453 z M 2174.04,4.30859 h 29 V 79.332 h 76.94 V 4.30859 h 29 V 175.445 h -29 v -69.269 h -76.94 v 69.269 h -29 z M 2354.76,175.445 V 73.5781 c 0,-25.5664 5.67,-44.2187 17.02,-55.9648 C 2383.12,5.85938 2399.74,0 2421.63,0 c 10.06,0 19.17,1.30859 27.33,3.94922 8.14,2.64062 15.17,6.87498 21.08,12.70708 5.92,5.8281 10.47,13.3398 13.66,22.5273 3.21,9.1914 4.8,20.4102 4.8,33.6719 V 175.445 h -29 V 72.8555 c 0,-16.1328 -2.84,-28.1524 -8.51,-36.0625 -5.67,-7.9102 -15.37,-11.8672 -29.12,-11.8672 -13.9,0 -23.77,3.957 -29.6,11.8672 -5.83,7.9101 -8.75,19.9297 -8.75,36.0625 V 175.445 Z M 2534.28,4.30859 h 63.51 c 11.66,0 21.49,1.32032 29.49,3.95704 7.99,2.63667 14.46,6.23047 19.41,10.78127 4.95,4.5625 8.52,9.9531 10.67,16.1836 2.15,6.2304 3.24,12.8593 3.24,19.8906 0,3.8398 -0.4,7.6289 -1.2,11.3867 -0.8,3.75 -2.25,7.3555 -4.32,10.793 -2.08,3.4258 -4.87,6.6601 -8.39,9.707 -3.51,3.0274 -8,5.75 -13.42,8.1445 8.47,3.9922 14.3,9.0627 17.49,15.2267 3.2,6.141 4.8,12.82 4.8,20.008 0,6.23 -0.88,12.097 -2.64,17.617 -1.76,5.508 -5,10.301 -9.71,14.383 -4.71,4.074 -11.06,7.265 -19.05,9.582 -8,2.312 -18.21,3.476 -30.67,3.476 h -59.21 z m 28.05,100.91041 v 47.219 h 30.19 c 12.78,0 21.77,-1.797 26.96,-5.391 5.2,-3.594 7.8,-9.473 7.8,-17.617 0,-7.832 -2.25,-13.828 -6.71,-17.981 -4.48,-4.156 -12.38,-6.23 -23.73,-6.23 z m 0,-77.6565 v 53.9258 h 37.14 c 11.99,0 20.41,-2.2735 25.29,-6.8242 4.87,-4.5625 7.31,-11.1524 7.31,-19.7774 0,-4.1601 -0.56,-7.9101 -1.68,-11.2695 -1.12,-3.3594 -3,-6.2305 -5.63,-8.6211 -2.64,-2.4023 -6.23,-4.2383 -10.78,-5.5195 -4.55,-1.2774 -10.28,-1.9141 -17.14,-1.9141 h -34.51" /><path
         id="path16"
         style="fill:#231f20;fill-opacity:1;fill-rule:nonzero;stroke:none"
         d="m 2664.4,844.652 h -96.97 L 2389,666.816 v 177.836 h -68.41 V 431.977 H 2389 v 177.175 l 178.43,-177.175 h 96.97 L 2457.99,638.25 2664.4,844.652" /><path
         id="path18"
         style="fill:#231f20;fill-opacity:1;fill-rule:nonzero;stroke:none"
         d="m 1954.11,783.988 c -40.46,-40.445 -60.66,-89.023 -60.66,-145.734 0,-56.981 20.2,-105.563 60.66,-145.602 40.44,-40.437 89.22,-60.675 146.33,-60.675 28.55,0 55.22,5.343 80.01,16.054 24.77,10.715 46.7,25.594 65.74,44.621 l -48.79,48.188 c -27.37,-26.57 -59.68,-39.863 -96.96,-39.863 -38.07,0 -70.59,13.293 -97.55,39.863 -26.96,27.363 -40.45,59.789 -40.45,97.414 0,37.687 13.49,70.008 40.45,96.976 26.96,26.961 59.48,40.45 97.55,40.45 37.68,0 69.98,-13.489 96.96,-40.45 l 48.79,48.758 c -19.04,19.051 -40.97,33.907 -65.74,44.629 -24.79,10.696 -51.46,16.035 -80.01,16.035 -57.5,0 -106.29,-20.214 -146.33,-60.664" /><path
         id="path20"
         style="fill:#231f20;fill-opacity:1;fill-rule:nonzero;stroke:none"
         d="m 1104.5,431.977 h 274.82 v 69 H 1172.91 V 844.652 H 1104.5 V 431.977" /><path
         id="path22"
         style="fill:#231f20;fill-opacity:1;fill-rule:nonzero;stroke:none"
         d="m 984.77,629.348 c 16.24,23.367 24.39,49.355 24.39,77.929 0,37.661 -13.5,69.977 -40.445,96.926 -26.988,26.985 -59.305,40.449 -96.961,40.449 H 665.348 V 431.977 h 68.398 v 137.39 h 116.59 l 79.695,-137.39 h 79.129 l -85.062,148.117 c 24.582,9.867 44.8,26.289 60.672,49.254 m -113.016,8.902 -138.008,0.609 V 775.68 h 138.008 c 18.629,0 34.684,-6.77 48.184,-20.239 13.468,-13.492 20.207,-29.531 20.207,-48.164 0,-19.043 -6.739,-35.304 -20.207,-48.773 -13.5,-13.492 -29.555,-20.254 -48.184,-20.254" /><path
         id="path24"
         style="fill:#231f20;fill-opacity:1;fill-rule:nonzero;stroke:none"
         d="m 487.867,431.977 h 68.399 V 844.652 H 487.867 V 431.977" /><path
         id="path26"
         style="fill:#231f20;fill-opacity:1;fill-rule:nonzero;stroke:none"
         d="m 0,431.977 h 76.7344 l 35.0786,69 h 189.765 l 34.496,-69 h 76.727 L 206.402,844.66 Z m 206.402,258.632 60.68,-121.242 H 145.727 Z" /><path
         id="path28"
         style="fill:#231f20;fill-opacity:1;fill-rule:nonzero;stroke:none"
         d="m 1484.87,638.566 c 0,37.68 13.29,70.004 39.84,96.981 27.36,26.953 59.88,40.441 97.55,40.441 5.06,0 9.97,-0.289 14.82,-0.777 l 26.63,65.934 c -13.27,2.546 -27.08,3.839 -41.45,3.839 -57.49,0 -106.08,-20.218 -145.73,-60.683 -40.44,-40.426 -60.67,-89.004 -60.67,-145.735 0,-56.972 20.23,-105.558 60.67,-145.582 10.98,-11.097 22.67,-20.519 34.93,-28.57 l 26.43,65.41 c -4.5,3.492 -8.93,7.18 -13.18,11.328 -26.55,27.375 -39.84,59.797 -39.84,97.414 M 1768,784.301 c -10.85,10.949 -22.35,20.293 -34.45,28.269 l -26.69,-66.043 c 4.23,-3.386 8.37,-6.992 12.35,-10.98 26.97,-26.977 40.45,-59.301 40.45,-96.981 0,-37.617 -13.48,-70.039 -40.45,-97.414 -26.96,-26.578 -59.28,-39.851 -96.95,-39.851 -4.83,0 -9.58,0.238 -14.26,0.672 l -26.62,-65.93 c 13.11,-2.5 26.72,-3.742 40.88,-3.742 57.11,0 105.67,20.203 145.74,60.683 40.83,39.633 61.28,88.188 61.28,145.582 0,56.731 -20.45,105.309 -61.28,145.735" /><path
         id="path30"
         style="fill:#718085;fill-opacity:1;fill-rule:nonzero;stroke:none"
         d="m 1444.57,299.379 69.96,-28.281 41.58,102.91 -69.96,28.234 -41.58,-102.863" /><path
         id="path32"
         style="fill:#718085;fill-opacity:1;fill-rule:nonzero;stroke:none"
         d="m 1730.14,1006.07 -41.58,-102.898 69.98,-28.266 41.55,102.899 -69.95,28.265" /><path
         id="path34"
         style="fill:#231f20;fill-opacity:1;fill-rule:nonzero;stroke:none"
         d="m 2798.99,785.742 c 2.92,4.192 4.37,8.848 4.37,13.977 0,6.758 -2.42,12.547 -7.25,17.386 -4.84,4.833 -10.64,7.25 -17.39,7.25 h -37.02 v -74.007 h 12.27 v 24.636 h 20.9 l 14.3,-24.636 h 14.19 l -15.25,26.562 c 4.4,1.766 8.02,4.719 10.88,8.832 m -20.27,1.598 -24.75,0.105 v 24.543 h 24.75 c 3.34,0 6.22,-1.215 8.65,-3.633 2.41,-2.417 3.62,-5.296 3.62,-8.636 0,-3.414 -1.21,-6.328 -3.62,-8.746 -2.43,-2.422 -5.31,-3.633 -8.65,-3.633" /><path
         id="path36"
         style="fill:#231f20;fill-opacity:1;fill-rule:nonzero;stroke:none"
         d="m 2770.98,844.355 c -32.3,0 -58.57,-26.273 -58.57,-58.562 0,-32.289 26.27,-58.563 58.57,-58.563 32.29,0 58.56,26.274 58.56,58.563 0,32.289 -26.27,58.562 -58.56,58.562 z m 0,-127.339 c -37.93,0 -68.78,30.851 -68.78,68.777 0,37.922 30.85,68.777 68.78,68.777 37.93,0 68.78,-30.855 68.78,-68.777 0,-37.926 -30.85,-68.777 -68.78,-68.777" /></g></g></svg>