<?xml version="1.0" encoding="UTF-8" standalone="no"?>
<svg
   xmlns:dc="http://purl.org/dc/elements/1.1/"
   xmlns:cc="http://creativecommons.org/ns#"
   xmlns:rdf="http://www.w3.org/1999/02/22-rdf-syntax-ns#"
   xmlns:svg="http://www.w3.org/2000/svg"
   xmlns="http://www.w3.org/2000/svg"
   viewBox="0 0 123.17333 36.666668"
   height="36.666668"
   width="123.17333"
   xml:space="preserve"
   id="svg2"
   version="1.1"><metadata
     id="metadata8"><rdf:RDF><cc:Work
         rdf:about=""><dc:format>image/svg+xml</dc:format><dc:type
           rdf:resource="http://purl.org/dc/dcmitype/StillImage" /></cc:Work></rdf:RDF></metadata><defs
     id="defs6" /><g
     transform="matrix(1.3333333,0,0,-1.3333333,0,36.666667)"
     id="g10"><g
       transform="scale(0.1)"
       id="g12"><path
         id="path14"
         style="fill:#ed1443;fill-opacity:1;fill-rule:nonzero;stroke:none"
         d="m 923.75,226.02 c 0,-9.172 -0.738,-18.348 -2.187,-28.223 l -16.7,-115.0587 h -51.98 L 872.5,203.203 c 0.738,5.121 1.777,9.586 1.078,14.297 -3.683,25.125 -41.043,22.863 -56.09,17.363 L 793.148,82.7383 H 741.531 L 772.23,268.262 c 0,0 87.047,3.515 102.051,3.515 31.157,0 49.469,-17.191 49.469,-45.757" /><path
         id="path16"
         style="fill:#ed1443;fill-opacity:1;fill-rule:nonzero;stroke:none"
         d="m 638.754,275.043 c 49.851,0 80.969,-31.863 80.969,-82.41 0,-68.86 -39.922,-113.5314 -100.723,-113.5314 -50.176,0 -80.969,31.5004 -80.969,83.1094 0,68.16 39.93,112.832 100.723,112.832 M 655.25,138.824 c 7.684,19.008 11.727,42.817 11.727,65.918 0,25.996 -9.911,39.184 -30.039,39.184 -15.743,0 -27.114,-9.176 -34.434,-28.598 -7.684,-19.008 -11.688,-42.824 -11.688,-65.555 0,-26.367 10.243,-39.554 30,-39.554 16.122,0 26.747,8.804 34.434,28.605" /><path
         id="path18"
         style="fill:#ed1443;fill-opacity:1;fill-rule:nonzero;stroke:none"
         d="M 520.098,273.227 488.23,72.1172 C 480.543,21.9414 452.691,0 397.758,0 378.711,0 357.09,3.30469 321.914,11.6875 l 4.766,29.6836 c 22.718,-4.0117 39.593,-5.8672 56.781,-5.8672 36.992,0 48.73,9.5391 54.227,44.3438 l 2.894,18.3125 c -2.187,-1.1172 -3.641,-1.8711 -4.758,-2.5704 -24.508,-13.1875 -32.941,-16.1601 -46.488,-16.1601 -34.066,0 -54.602,28.2303 -54.602,75.1443 0,68.805 43.602,119.735 102.954,119.735 13.187,0 82.41,-1.082 82.41,-1.082 M 445,124.527 462.945,239.871 c -5.132,0.75 -9.515,1.121 -13.558,1.121 -22.692,0 -37.371,-8.058 -48.364,-26.746 -8.386,-14.293 -13.511,-35.539 -13.511,-56.039 0,-26.742 9.508,-39.555 30.375,-39.555 6.949,0 15.746,1.817 27.113,5.875" /><path
         id="path20"
         style="fill:#ed1443;fill-opacity:1;fill-rule:nonzero;stroke:none"
         d="m 330.434,269.922 -6.938,-43.981 c -13.558,5.875 -23.851,8.438 -34.801,8.438 -10.293,0 -21.246,-2.563 -30.789,-6.949 L 234.844,82.7383 H 183.18 l 30.039,188.9997 h 50.547 L 260.84,254.18 c 24.918,15.742 35.914,20.492 48.723,20.492 7.683,0 15.003,-1.445 20.871,-4.75" /><path
         id="path22"
         style="fill:#ed1443;fill-opacity:1;fill-rule:nonzero;stroke:none"
         d="m 109.898,274.672 c 38.067,0 59.313,-16.449 59.313,-45.789 0,-43.559 -34.438,-65.176 -103.6602,-65.176 H 52.7422 c -0.3789,-2.937 -0.3789,-4.762 -0.3789,-7.316 0,-29.68 13.5586,-43.227 43.9805,-43.227 15.0042,0 24.8792,1.109 49.0542,5.859 L 141.395,91.5391 C 113.531,82.7422 98.1602,79.8477 79.8477,79.8477 28.1953,79.8477 0,106.965 0,156.758 0,226.695 44.6758,274.672 109.898,274.672 m 10.625,-46.871 c 0,12.07 -6.992,18.687 -20.171,18.687 -23.4379,0 -39.9223,-20.539 -44.6723,-55.297 h 5.1211 c 39.1758,0.372 59.7222,13.18 59.7222,36.61" /></g></g></svg>