<?xml version="1.0" encoding="UTF-8" standalone="no"?>
<svg
   xmlns:dc="http://purl.org/dc/elements/1.1/"
   xmlns:cc="http://creativecommons.org/ns#"
   xmlns:rdf="http://www.w3.org/1999/02/22-rdf-syntax-ns#"
   xmlns:svg="http://www.w3.org/2000/svg"
   xmlns="http://www.w3.org/2000/svg"
   viewBox="0 0 474.67999 96"
   height="96"
   width="474.67999"
   xml:space="preserve"
   id="svg2"
   version="1.1"><metadata
     id="metadata8"><rdf:RDF><cc:Work
         rdf:about=""><dc:format>image/svg+xml</dc:format><dc:type
           rdf:resource="http://purl.org/dc/dcmitype/StillImage" /></cc:Work></rdf:RDF></metadata><defs
     id="defs6" /><g
     transform="matrix(1.3333333,0,0,-1.3333333,0,96)"
     id="g10"><g
       transform="scale(0.1)"
       id="g12"><path
         id="path14"
         style="fill:#213656;fill-opacity:1;fill-rule:evenodd;stroke:none"
         d="m 3116.08,581 222,-148 -212,-319 168,-82 266,175 -22,319 -290,142 -132,-87" /><path
         id="path16"
         style="fill:#5083cc;fill-opacity:1;fill-rule:evenodd;stroke:none"
         d="m 2619.08,288 432,-288 76,114 -122,60 -22,318 133,88 -209,140 -288,-432" /><path
         id="path18"
         style="fill:#231f20;fill-opacity:1;fill-rule:evenodd;stroke:none"
         d="M 1058.08,720 V 619 H 957.082 v 101 z m 1244,-234 c -49,0 -87,-24 -107,-72 l -1,-3 h 219 c -14,46 -57,75 -111,75 z m -949,-7 c -67,0 -108,-53 -108,-119 0,-69 45,-120 108,-120 62,0 111,47 111,120 0,71 -47,119 -111,119 z m -692.998,0 c -64,0 -111,-48 -111,-118 0,-73 48,-120 111,-120 63,0 109,51 109,120 0,65 -42,118 -109,118 z m 397.998,81 V 160 H 957.082 v 400 z m 704,0 V 350 c 0,-72 23,-110 76,-110 54,0 76,37 76,105 v 0 215 h 101 V 375 c 0,-74 -5,-129 -47,-176 -32,-36 -73,-51 -129,-51 -97,0 -157,49 -173,143 -5,33 -4,51 -4,85 v 0 184 z M 101.082,560 V 350 c 0,-72 23,-110 76,-110 54,0 76,37 76,105 v 0 215 h 101 V 370 c 0,-72 -5,-125 -47,-171 -32,-36 -73,-51 -129,-51 -98,0 -158,49 -173.99997,143 -4.999999,33 -3.9999987,52 -3.9999987,85 v 0 184 z m 2198.998,11 c 127,0 213,-91 213,-218 0,-3 0,-6 0,-9 v -5 c 0,-2 0,-4 0,-6 v -2 h -324 c 10,-60 55,-93 113,-93 42,0 70,11 97,37 l 3,3 85,-40 c -43,-61 -100,-89 -185,-89 -128,0 -210,94 -210,212 0,109 79,210 208,210 z M 554.082,720 V 517 c 36,36 78,54 126,54 104,0 190,-86 190,-212 0,-123 -90,-211 -192,-211 -49,0 -86,17 -121,50 l -3,3 v -42 h -100 V 720 Z M 1333.08,571 c 47,0 88,-17 123,-51 l 3,-3 v 43 h 101 V 0 h -101 v 201 c -36,-35 -73,-53 -124,-53 -102,0 -191,88 -191,211 0,126 85,212 189,212" /></g></g></svg>