<svg xmlns="http://www.w3.org/2000/svg" width="828.511" height="374.429"><path fill="none" stroke="#c80e7d" stroke-width="10.00018215" stroke-miterlimit="10" d="M141.39 303.631l37.988-65.798h75.977l37.988 65.798-37.988 65.798h-75.977z"/><path fill="none" stroke="#fb9d11" stroke-width="10.00018215" stroke-miterlimit="10" d="M157.727 225.333l-37.988 65.798H43.762L5.773 225.333l37.989-65.798h75.977l37.988 65.798z"/><path fill="none" stroke="#00afef" stroke-width="10.00018215" stroke-miterlimit="10" d="M180.568 214.894l-37.988-65.798 37.988-65.798h75.977l37.988 65.798-37.988 65.798z"/><path fill="none" stroke="#f7e400" stroke-width="10.00018215" stroke-miterlimit="10" d="M44.952 136.596L6.963 70.798 44.952 5h75.977l37.988 65.798-37.988 65.798z"/><path d="M346.714 104.725l-6.005-10.401-12-20.785-1.523-2.638 1.514-2.622 6.005-10.4h-12.01L315.175 70.9l9.764 16.911 4.882 8.457 4.882 8.455 5.925 10.263 6.005 10.401h39.057l15.728-27.243L417.15 70.9 411.142 60.5l-6.004 10.4-25.454 44.087H352.64l-5.925-10.262z" fill="#fb9d11" fill-rule="evenodd"/><path d="M381.279 70.901l-12.227 21.177-1.296 2.246h-15.038l6.006 10.4h15.036l9.764-16.911.872-1.51 8.892-15.402 5.926-10.263 6.004-10.4-3.799-6.58-15.728-27.244h-62.917l-6.005 10.4H379.686l7.518 13.023 6.005 10.4-5.926 10.263-6.004 10.401z" fill="#f7e211" fill-rule="evenodd"/><path d="M362.892 47.478h4.863l1.514 2.622 6.005 10.4 6.005-10.4-7.519-13.023h-62.916l-3.799 6.58-15.729 27.244 15.73 27.243 15.728 27.244h12.01l-6.005-10.4L303.326 70.9l7.519-13.022 6.004-10.401h46.043z" fill="#c80e7d" fill-rule="evenodd"/><path d="M272.482 70.901l40.876 70.797 81.75.001 40.874-70.798L395.107.104h-81.75L272.481 70.9zm29.445 30.198L284.49 70.901l17.436-30.198 17.435-30.199h34.87l34.87.001 17.435 30.198L423.972 70.9 406.537 101.1l-17.435 30.199h-34.87l-34.87-.001-17.435-30.198z" fill="#00afef" fill-rule="evenodd"/><path d="M495.975 100.148c0-.532.228-.984.683-1.356.456-.372 1.095-.558 1.915-.558.728 0 1.45.14 2.164.422.713.28 1.434.687 2.164 1.218l1.504-2.118a9.366 9.366 0 0 0-2.632-1.492c-.934-.343-1.986-.513-3.155-.513-.79 0-1.519.11-2.184.33a4.967 4.967 0 0 0-1.712.946c-.475.41-.847.9-1.12 1.469a4.394 4.394 0 0 0-.407 1.902c0 .744.118 1.375.354 1.891.235.517.58.957 1.03 1.321.447.366 1.004.668 1.666.912.664.243 1.42.463 2.274.66.744.183 1.348.358 1.815.524.464.168.828.346 1.097.536.266.19.448.399.547.627.099.228.148.485.148.774 0 .623-.255 1.117-.763 1.48-.509.366-1.196.547-2.062.547-1.002 0-1.898-.177-2.688-.534-.79-.358-1.572-.87-2.347-1.539l-1.685 2.005c.956.866 1.997 1.508 3.121 1.926 1.124.417 2.301.626 3.53.626.837 0 1.603-.106 2.302-.318.695-.214 1.294-.525 1.788-.935.497-.41.885-.911 1.166-1.504.278-.592.418-1.268.418-2.027 0-.669-.11-1.25-.33-1.743a3.756 3.756 0 0 0-.973-1.3c-.425-.371-.964-.686-1.61-.945a18.038 18.038 0 0 0-2.225-.705 22.7 22.7 0 0 1-1.887-.524c-.494-.168-.88-.35-1.166-.547-.28-.197-.474-.41-.58-.638a1.94 1.94 0 0 1-.16-.82zm22.619 5.422l6.333-9.592h-3.213l-4.51 7.063-4.466-7.063h-3.303l6.333 9.66v6.288h2.826v-6.356zm25.237-5.08v11.436h2.78V95.978h-2.985l-4.853 7.542-4.853-7.542h-2.984v15.948h2.78v-11.391l4.989 7.473h.092l5.034-7.519zm22.778.843c0-.821-.14-1.557-.421-2.21a4.779 4.779 0 0 0-1.208-1.686c-.524-.47-1.162-.832-1.913-1.082-.752-.25-1.591-.377-2.518-.377h-6.288v15.948h2.78V106.8h3.174c.885 0 1.713-.118 2.49-.352a6.161 6.161 0 0 0 2.032-1.038 4.915 4.915 0 0 0 1.37-1.708c.335-.684.502-1.473.502-2.37zm-2.848.056c0 .87-.308 1.568-.926 2.092-.615.528-1.458.79-2.525.79h-3.27v-5.763h3.27c1.051 0 1.891.239 2.514.721.626.478.937 1.2.937 2.16zM589 103.93a8.34 8.34 0 0 0-.615-3.19 8.047 8.047 0 0 0-1.708-2.62 8.016 8.016 0 0 0-2.62-1.764c-1.018-.434-2.142-.65-3.372-.65s-2.355.22-3.372.662a8.326 8.326 0 0 0-2.643 1.787 8.038 8.038 0 0 0-1.732 2.631 8.364 8.364 0 0 0-.614 3.19 8.36 8.36 0 0 0 .614 3.19 8.073 8.073 0 0 0 1.71 2.62 8.016 8.016 0 0 0 2.62 1.765c1.017.433 2.141.65 3.371.65 1.231 0 2.355-.22 3.372-.66a8.35 8.35 0 0 0 2.643-1.79 8.016 8.016 0 0 0 1.73-2.63 8.34 8.34 0 0 0 .616-3.19zm-2.938.047a6.08 6.08 0 0 1-.399 2.198 5.558 5.558 0 0 1-1.105 1.799c-.47.51-1.037.912-1.697 1.208a5.262 5.262 0 0 1-2.176.444c-.79 0-1.519-.152-2.187-.456a5.297 5.297 0 0 1-1.72-1.23 5.598 5.598 0 0 1-1.117-1.811 6.075 6.075 0 0 1-.398-2.199c0-.773.133-1.507.398-2.197a5.555 5.555 0 0 1 1.105-1.8 5.152 5.152 0 0 1 1.697-1.208 5.269 5.269 0 0 1 2.176-.444c.79 0 1.52.152 2.187.456a5.31 5.31 0 0 1 1.72 1.23c.479.516.85 1.12 1.117 1.811.266.69.399 1.424.399 2.199zm12.116-3.828c0-.532.228-.984.683-1.356.455-.372 1.094-.558 1.914-.558.728 0 1.45.14 2.164.422.714.28 1.435.687 2.164 1.218l1.504-2.118a9.364 9.364 0 0 0-2.632-1.492c-.933-.343-1.985-.513-3.155-.513-.789 0-1.518.11-2.183.33a4.96 4.96 0 0 0-1.712.946c-.475.41-.847.9-1.12 1.469a4.394 4.394 0 0 0-.407 1.902c0 .744.117 1.375.353 1.891.236.517.581.957 1.03 1.321.447.366 1.005.668 1.666.912.664.243 1.42.463 2.275.66.744.183 1.348.358 1.814.524.464.168.828.346 1.098.536.265.19.448.399.546.627.1.228.148.485.148.774 0 .623-.254 1.117-.763 1.48-.508.366-1.195.547-2.062.547-1.001 0-1.897-.177-2.688-.534-.79-.358-1.572-.87-2.346-1.539l-1.686 2.005c.956.866 1.997 1.508 3.121 1.926a10.06 10.06 0 0 0 3.531.626c.836 0 1.603-.106 2.301-.318.695-.214 1.295-.525 1.789-.935.497-.41.884-.911 1.166-1.504.277-.592.417-1.268.417-2.027 0-.669-.11-1.25-.33-1.743a3.751 3.751 0 0 0-.972-1.3c-.426-.371-.965-.686-1.61-.945a18.022 18.022 0 0 0-2.225-.705 22.725 22.725 0 0 1-1.888-.524c-.493-.168-.88-.35-1.165-.547-.281-.197-.475-.41-.581-.638a1.937 1.937 0 0 1-.16-.82zm15.942-4.17v15.948h2.78V95.978h-2.78zm24.009 0h-2.78v9.182c0 1.473-.36 2.582-1.077 3.326-.719.744-1.701 1.116-2.955 1.116-1.268 0-2.258-.386-2.977-1.161-.717-.775-1.078-1.907-1.078-3.395v-9.068h-2.78v9.182c0 1.154.16 2.168.48 3.041.318.873.774 1.607 1.366 2.199a5.66 5.66 0 0 0 2.141 1.333c.836.296 1.77.444 2.803.444 1.048 0 1.993-.148 2.836-.444a5.573 5.573 0 0 0 2.153-1.344c.592-.6 1.052-1.348 1.379-2.244.326-.897.489-1.937.489-3.121v-9.046zm20.295 4.511v11.437h2.78V95.978h-2.986l-4.852 7.542-4.853-7.542h-2.984v15.948h2.78v-11.391l4.988 7.473h.092l5.035-7.519zM502.95 128.287v6.721h2.779v-15.947h-2.779v6.629h-7.656v-6.63h-2.778v15.948h2.778v-6.72h7.656zm17.61-9.34h-2.598l-7.016 16.061h2.87l1.64-3.85h7.542l1.617 3.85h2.962l-7.018-16.06zm1.413 9.728h-5.491l2.733-6.38 2.758 6.38zm23.715 3.781l-1.8-1.822c-.684.638-1.374 1.143-2.073 1.516-.699.372-1.535.557-2.507.557a4.99 4.99 0 0 1-2.106-.444 5.145 5.145 0 0 1-1.675-1.218 5.51 5.51 0 0 1-1.093-1.812 6.277 6.277 0 0 1-.388-2.222c0-.79.13-1.525.388-2.21a5.396 5.396 0 0 1 1.093-1.787 5.22 5.22 0 0 1 1.675-1.208 4.996 4.996 0 0 1 2.106-.444c.912 0 1.724.183 2.439.547a9 9 0 0 1 2.028 1.435l1.799-2.073a10.718 10.718 0 0 0-1.207-1.002 7.715 7.715 0 0 0-1.39-.787 8.08 8.08 0 0 0-1.651-.512c-.6-.121-1.266-.183-1.994-.183-1.216 0-2.324.217-3.326.65a7.978 7.978 0 0 0-2.598 1.777 8.045 8.045 0 0 0-1.697 2.63 8.543 8.543 0 0 0-.604 3.214c0 1.153.205 2.232.615 3.234a8.03 8.03 0 0 0 1.697 2.609 7.941 7.941 0 0 0 2.564 1.743c.987.425 2.065.638 3.235.638a9.92 9.92 0 0 0 2.038-.194 7.308 7.308 0 0 0 1.698-.569c.517-.25.998-.547 1.446-.89.448-.34.878-.731 1.288-1.173zm12.598-6.538l6.63-6.857h-3.441l-7.587 8.02v-8.02h-2.779v15.947h2.78v-4.625l2.483-2.55 5.445 7.175h3.395l-6.926-9.09zm19.751-6.97h-2.597l-7.016 16.06h2.87l1.64-3.85h7.542l1.617 3.85h2.961l-7.017-16.06zm1.413 9.727h-5.49l2.733-6.38 2.757 6.38zm15.515-7.017h5.057v-2.597h-12.94v2.597h5.058v13.35h2.825v-13.35zm20.936 6.63v6.72h2.778v-15.947h-2.778v6.629h-7.656v-6.63h-2.779v15.948h2.78v-6.72h7.655zm25.333-1.277a8.34 8.34 0 0 0-.616-3.189 8.052 8.052 0 0 0-1.708-2.62 8.015 8.015 0 0 0-2.62-1.765c-1.018-.433-2.142-.65-3.372-.65s-2.355.22-3.372.661a8.333 8.333 0 0 0-2.643 1.789 8.036 8.036 0 0 0-1.732 2.63 8.362 8.362 0 0 0-.614 3.19c0 1.125.205 2.188.614 3.19a8.08 8.08 0 0 0 1.71 2.62 8.02 8.02 0 0 0 2.62 1.765c1.017.434 2.141.65 3.371.65 1.231 0 2.355-.22 3.372-.66a8.344 8.344 0 0 0 2.643-1.79 8.012 8.012 0 0 0 1.73-2.63 8.34 8.34 0 0 0 .617-3.19zm-2.94.047c0 .775-.132 1.507-.398 2.198a5.565 5.565 0 0 1-1.105 1.8c-.47.509-1.037.911-1.697 1.207a5.263 5.263 0 0 1-2.176.444 5.283 5.283 0 0 1-3.907-1.685 5.6 5.6 0 0 1-1.117-1.812 6.082 6.082 0 0 1-.398-2.198c0-.774.133-1.507.398-2.198a5.554 5.554 0 0 1 1.105-1.8 5.15 5.15 0 0 1 1.697-1.208 5.27 5.27 0 0 1 2.176-.444c.79 0 1.52.152 2.187.456a5.302 5.302 0 0 1 1.72 1.23c.479.516.85 1.12 1.117 1.811.266.69.399 1.424.399 2.199zm19.934 3.03l-8.524-11.027h-2.593v15.947h2.779v-11.345l8.775 11.345h2.343v-15.947h-2.78v11.026zM550.874 7.351h-13.8L521.86 48.335 506.648 7.35h-14.132l23.526 58.608h11.306L550.874 7.35zm38.06 58.192V7.35h-12.803v58.192h12.803zm72.31-17.208v-.167c0-2.549-.402-4.738-1.206-6.567-.803-1.829-2.008-3.423-3.588-4.78-1.579-1.358-3.533-2.522-5.833-3.492-2.3-.97-4.932-1.842-7.883-2.618a197.948 197.948 0 0 1-6.208-1.746c-1.634-.499-2.923-1.025-3.879-1.58-.942-.554-1.594-1.177-1.954-1.87-.36-.692-.54-1.51-.54-2.452v-.166c0-1.442.624-2.647 1.87-3.616 1.248-.97 3.118-1.455 5.612-1.455s4.988.512 7.482 1.538c2.494 1.025 5.043 2.424 7.647 4.197l6.651-9.642a34.09 34.09 0 0 0-9.851-5.487c-3.575-1.274-7.496-1.912-11.763-1.912-2.992 0-5.736.415-8.215 1.246-2.481.832-4.628 2.023-6.416 3.575A16.476 16.476 0 0 0 619 16.87c-.984 2.133-1.483 4.53-1.483 7.19v.167c0 2.882.457 5.292 1.372 7.232a13.302 13.302 0 0 0 3.88 4.863c1.662 1.302 3.699 2.397 6.082 3.284 2.397.887 5.057 1.69 8.008 2.41 2.439.61 4.434 1.192 5.958 1.746 1.524.555 2.715 1.109 3.588 1.663.86.555 1.441 1.15 1.746 1.787.305.638.457 1.372.457 2.203v.166c0 1.719-.734 3.063-2.203 4.032-1.469.97-3.533 1.455-6.193 1.455-3.325 0-6.387-.637-9.186-1.912-2.799-1.274-5.528-2.993-8.189-5.154l-7.564 9.061c3.492 3.16 7.37 5.5 11.638 7.025 4.267 1.523 8.618 2.286 13.052 2.286 3.159 0 6.04-.402 8.632-1.206 2.59-.803 4.835-1.967 6.705-3.49 1.87-1.525 3.325-3.41 4.378-5.654 1.04-2.244 1.566-4.807 1.566-7.69M727.937 58.145l-4.073-3.823a24.741 24.741 0 0 1-5.777 4.572c-2.133 1.218-4.585 1.828-7.355 1.828-2.273 0-4.365-.43-6.276-1.288a15.223 15.223 0 0 1-4.988-3.56c-1.413-1.524-2.52-3.311-3.324-5.348-.803-2.05-1.205-4.225-1.205-6.553 0-2.326.388-4.488 1.163-6.51.776-2.01 1.857-3.783 3.242-5.307a14.888 14.888 0 0 1 4.904-3.56c1.884-.858 3.906-1.288 6.067-1.288 2.938 0 5.418.638 7.44 1.912a30.292 30.292 0 0 1 5.61 4.572l4.24-4.49a33.435 33.435 0 0 0-3.243-2.991 20.916 20.916 0 0 0-3.822-2.452c-1.386-.693-2.91-1.233-4.572-1.62-1.662-.388-3.52-.583-5.569-.583-3.158 0-6.081.596-8.77 1.787-2.687 1.191-5.015 2.812-6.981 4.863-1.968 2.05-3.505 4.446-4.613 7.189-1.109 2.743-1.663 5.638-1.663 8.687 0 3.047.554 5.928 1.663 8.644 1.108 2.715 2.645 5.084 4.613 7.106 1.966 2.023 4.294 3.63 6.981 4.821 2.689 1.191 5.612 1.787 8.77 1.787 4.045 0 7.439-.79 10.182-2.355 2.743-1.579 5.195-3.588 7.356-6.04zm51.451-14.13c0-3.047-.555-5.929-1.663-8.644s-2.66-5.084-4.654-7.107c-1.995-2.022-4.364-3.63-7.107-4.821-2.743-1.191-5.72-1.787-8.935-1.787-3.269 0-6.276.596-9.018 1.787-2.743 1.191-5.112 2.812-7.107 4.863-1.995 2.05-3.547 4.446-4.655 7.189-1.108 2.743-1.663 5.638-1.663 8.687 0 3.047.555 5.928 1.663 8.644 1.108 2.715 2.66 5.084 4.655 7.106 1.995 2.023 4.35 3.63 7.066 4.821 2.714 1.191 5.678 1.787 8.892 1.787 3.215 0 6.208-.596 8.977-1.787 2.771-1.192 5.154-2.812 7.149-4.863 1.995-2.05 3.56-4.446 4.696-7.19 1.136-2.742 1.704-5.637 1.704-8.685zm-6.566.125c0 2.327-.388 4.488-1.164 6.51-.776 2.01-1.857 3.769-3.242 5.265-1.385 1.496-3.048 2.66-4.987 3.519-1.94.858-4.073 1.288-6.4 1.288-2.271 0-4.377-.444-6.317-1.33-1.94-.887-3.616-2.064-5.03-3.56-1.412-1.496-2.52-3.27-3.324-5.306-.803-2.05-1.204-4.225-1.204-6.553 0-2.326.388-4.488 1.163-6.51.776-2.01 1.842-3.783 3.2-5.307 1.358-1.523 3.006-2.7 4.946-3.56 1.94-.858 4.073-1.288 6.4-1.288 2.272 0 4.378.443 6.317 1.33s3.63 2.078 5.07 3.601c1.44 1.525 2.563 3.298 3.366 5.348.804 2.05 1.206 4.225 1.206 6.553zm24.52-3.2c0-1.995.318-3.824.955-5.487.637-1.661 1.539-3.088 2.702-4.28a11.924 11.924 0 0 1 4.114-2.743c1.58-.637 3.283-.956 5.111-.956 3.824 0 6.761 1.163 8.812 3.491 2.05 2.328 3.074 5.486 3.074 9.476v25.102h6.4V38.862c0-2.55-.373-4.877-1.121-6.983-.748-2.105-1.829-3.92-3.242-5.444s-3.13-2.7-5.153-3.533c-2.023-.83-4.336-1.246-6.94-1.246-3.713 0-6.733.817-9.06 2.452-2.328 1.634-4.212 3.616-5.652 5.943v-7.48h-6.4v42.972h6.4V40.94z" fill="#1a1a1a"/><path d="M463.102.103h4.925V141.7h-4.925V.103z" fill="#1a1a1a" fill-rule="evenodd"/></svg>